<?xml version="1.0" encoding="UTF-8" standalone="no"?>
<!-- Created with Inkscape (http://www.inkscape.org/) -->

<svg
   xmlns:dc="http://purl.org/dc/elements/1.1/"
   xmlns:cc="http://creativecommons.org/ns#"
   xmlns:rdf="http://www.w3.org/1999/02/22-rdf-syntax-ns#"
   xmlns:svg="http://www.w3.org/2000/svg"
   xmlns="http://www.w3.org/2000/svg"
   xmlns:xlink="http://www.w3.org/1999/xlink"
   xmlns:sodipodi="http://sodipodi.sourceforge.net/DTD/sodipodi-0.dtd"
   xmlns:inkscape="http://www.inkscape.org/namespaces/inkscape"
   width="84.666672mm"
   height="84.666672mm"
   viewBox="0 0 300.00002 300.00002"
   id="svg5184"
   version="1.1"
   inkscape:version="0.91 r13725"
   sodipodi:docname="dial_rpm.svg">
  <defs
     id="defs5186">
    <linearGradient
       id="linearGradient8458">
      <stop
         style="stop-color:#f4f4f4;stop-opacity:1;"
         offset="0"
         id="stop8460" />
      <stop
         style="stop-color:#262626;stop-opacity:1;"
         offset="1"
         id="stop8462" />
    </linearGradient>
    <linearGradient
       id="linearGradient8474">
      <stop
         id="stop8476"
         offset="0"
         style="stop-color:#262626;stop-opacity:1;" />
      <stop
         style="stop-color:#9d9d9d;stop-opacity:1;"
         offset="0.55348837"
         id="stop8482" />
      <stop
         id="stop8478"
         offset="1"
         style="stop-color:#ffffff;stop-opacity:1;" />
    </linearGradient>
    <linearGradient
       id="linearGradient8803">
      <stop
         id="stop8805"
         offset="0"
         style="stop-color:#000000;stop-opacity:1;" />
      <stop
         style="stop-color:#1d1d1d;stop-opacity:1;"
         offset="0.63255817"
         id="stop8845" />
      <stop
         style="stop-color:#444444;stop-opacity:1;"
         offset="1"
         id="stop8811" />
    </linearGradient>
    <linearGradient
       inkscape:collect="always"
       xlink:href="#linearGradient8938"
       id="linearGradient6645"
       gradientUnits="userSpaceOnUse"
       gradientTransform="matrix(-6.3004289e-8,-0.3962579,0.7359085,-5.7873485e-8,-146.4472,639.50556)"
       x1="164.03433"
       y1="376.73819"
       x2="176.65236"
       y2="376.73819" />
    <linearGradient
       id="linearGradient8938">
      <stop
         id="stop8940"
         offset="0"
         style="stop-color:#750000;stop-opacity:1;" />
      <stop
         id="stop8942"
         offset="1"
         style="stop-color:#f60000;stop-opacity:1;" />
    </linearGradient>
    <linearGradient
       id="linearGradient8928">
      <stop
         id="stop8930"
         offset="0"
         style="stop-color:#ffffff;stop-opacity:0.89156628;" />
      <stop
         id="stop8932"
         offset="1"
         style="stop-color:#ffffff;stop-opacity:0;" />
    </linearGradient>
    <linearGradient
       id="linearGradient4214">
      <stop
         id="stop4216"
         offset="0"
         style="stop-color:#191919;stop-opacity:1;" />
      <stop
         id="stop4218"
         offset="1"
         style="stop-color:#686868;stop-opacity:1;" />
    </linearGradient>
    <linearGradient
       inkscape:collect="always"
       xlink:href="#linearGradient8458"
       id="linearGradient6134"
       gradientUnits="userSpaceOnUse"
       x1="173.9485"
       y1="566.00861"
       x2="287.51074"
       y2="566.00861" />
    <linearGradient
       inkscape:collect="always"
       xlink:href="#linearGradient8474"
       id="linearGradient6136"
       gradientUnits="userSpaceOnUse"
       spreadMethod="reflect"
       x1="73.659538"
       y1="475.46216"
       x2="112.66526"
       y2="475.46216" />
    <linearGradient
       inkscape:collect="always"
       xlink:href="#linearGradient8474"
       id="linearGradient6138"
       gradientUnits="userSpaceOnUse"
       spreadMethod="reflect"
       x1="73.659538"
       y1="475.46216"
       x2="112.66526"
       y2="475.46216" />
    <linearGradient
       inkscape:collect="always"
       xlink:href="#linearGradient8474"
       id="linearGradient6140"
       gradientUnits="userSpaceOnUse"
       spreadMethod="reflect"
       x1="73.659538"
       y1="475.46216"
       x2="112.66526"
       y2="475.46216" />
    <linearGradient
       inkscape:collect="always"
       xlink:href="#linearGradient8458"
       id="linearGradient6142"
       gradientUnits="userSpaceOnUse"
       spreadMethod="pad"
       x1="112.66094"
       y1="490.30377"
       x2="112.66093"
       y2="423.60516" />
    <radialGradient
       inkscape:collect="always"
       xlink:href="#linearGradient8803"
       id="radialGradient6144"
       gradientUnits="userSpaceOnUse"
       gradientTransform="matrix(1.0000012,0,0,1,-3.4359354e-4,0)"
       cx="230.72961"
       cy="566.00861"
       fx="229.00458"
       fy="614.43475"
       r="56.781116" />
    <linearGradient
       inkscape:collect="always"
       xlink:href="#linearGradient8474"
       id="linearGradient6146"
       gradientUnits="userSpaceOnUse"
       x1="179.30862"
       y1="598.82745"
       x2="265.66751"
       y2="512.46857" />
    <linearGradient
       inkscape:collect="always"
       xlink:href="#linearGradient8928"
       id="linearGradient6652"
       gradientUnits="userSpaceOnUse"
       gradientTransform="matrix(1.356383,0,0,1.356383,384.96767,-130.78992)"
       x1="-29.837337"
       y1="285.0596"
       x2="-29.837337"
       y2="342.60553" />
    <linearGradient
       inkscape:collect="always"
       xlink:href="#linearGradient4214"
       id="linearGradient6654"
       gradientUnits="userSpaceOnUse"
       x1="117.90171"
       y1="390.99506"
       x2="117.90171"
       y2="433.05731" />
    <linearGradient
       inkscape:collect="always"
       xlink:href="#linearGradient8458"
       id="linearGradient6656"
       gradientUnits="userSpaceOnUse"
       x1="117.90171"
       y1="390.99506"
       x2="117.90171"
       y2="433.05731" />
  </defs>
  <sodipodi:namedview
     id="base"
     pagecolor="#ffffff"
     bordercolor="#666666"
     borderopacity="1.0"
     inkscape:pageopacity="0.0"
     inkscape:pageshadow="2"
     inkscape:zoom="2.8284271"
     inkscape:cx="150.23748"
     inkscape:cy="187.4654"
     inkscape:document-units="px"
     inkscape:current-layer="layer_hidden"
     showgrid="false"
     fit-margin-top="0"
     fit-margin-left="0"
     fit-margin-right="0"
     fit-margin-bottom="0"
     inkscape:window-width="1920"
     inkscape:window-height="981"
     inkscape:window-x="0"
     inkscape:window-y="28"
     inkscape:window-maximized="1" />
  <metadata
     id="metadata5189">
    <rdf:RDF>
      <cc:Work
         rdf:about="">
        <dc:format>image/svg+xml</dc:format>
        <dc:type
           rdf:resource="http://purl.org/dc/dcmitype/StillImage" />
        <dc:title />
      </cc:Work>
    </rdf:RDF>
  </metadata>
  <g
     inkscape:label="low"
     inkscape:groupmode="layer"
     id="layer_low"
     transform="translate(24.28571,-619.50502)"
     style="display:inline">
    <g
       id="g3326"
       transform="matrix(2.1924611,0,0,2.1924611,-408.78381,-306.47318)">
      <circle
         r="56.781116"
         cy="566.00861"
         cx="230.72961"
         inkscape:label="#path8454"
         style="fill:url(#linearGradient6134);fill-opacity:1;fill-rule:evenodd;stroke:none;stroke-width:4.19999981;stroke-linecap:round;stroke-linejoin:round;stroke-miterlimit:4;stroke-dasharray:none;stroke-dashoffset:0;stroke-opacity:1"
         id="path3908"
         transform="matrix(0,1.2049123,-1.2049123,0,925.77983,212.75376)" />
      <g
         transform="matrix(1.0222955,0,0,1.0222955,100.97485,123.91705)"
         id="g3910">
        <path
           sodipodi:type="arc"
           style="opacity:1;fill:url(#linearGradient6136);fill-opacity:1;fill-rule:evenodd;stroke:none;stroke-width:4.19999981;stroke-linecap:round;stroke-linejoin:round;stroke-miterlimit:4;stroke-dasharray:none;stroke-dashoffset:0;stroke-opacity:1"
           id="path3912"
           sodipodi:cx="112.66094"
           sodipodi:cy="423.60516"
           sodipodi:rx="66.695282"
           sodipodi:ry="66.695282"
           d="m 146.00858,481.36497 a 66.695282,66.695282 0 0 1 -66.695279,0 l 33.347639,-57.75981 z"
           sodipodi:start="1.0471976"
           sodipodi:end="2.0943951"
           transform="translate(27.038627,-64.892704)" />
        <path
           transform="matrix(0.258819,0.9659258,-0.9659258,0.258819,519.71194,140.25326)"
           sodipodi:end="1.8325957"
           sodipodi:start="1.3089969"
           d="m 129.92295,488.02786 a 66.695282,66.695282 0 0 1 -34.524016,0 l 17.262006,-64.4227 z"
           sodipodi:ry="66.695282"
           sodipodi:rx="66.695282"
           sodipodi:cy="423.60516"
           sodipodi:cx="112.66094"
           id="path3914"
           style="opacity:1;fill:url(#linearGradient6138);fill-opacity:1;fill-rule:evenodd;stroke:none;stroke-width:4.19999981;stroke-linecap:round;stroke-linejoin:round;stroke-miterlimit:4;stroke-dasharray:none;stroke-dashoffset:0;stroke-opacity:1"
           sodipodi:type="arc"
           inkscape:transform-center-y="16.673795"
           inkscape:transform-center-x="33.347635" />
        <path
           inkscape:transform-center-x="-33.34764"
           inkscape:transform-center-y="16.673849"
           sodipodi:type="arc"
           style="opacity:1;fill:url(#linearGradient6140);fill-opacity:1;fill-rule:evenodd;stroke:none;stroke-width:4.19999981;stroke-linecap:round;stroke-linejoin:round;stroke-miterlimit:4;stroke-dasharray:none;stroke-dashoffset:0;stroke-opacity:1"
           id="path3916"
           sodipodi:cx="112.66094"
           sodipodi:cy="423.60516"
           sodipodi:rx="66.695282"
           sodipodi:ry="66.695282"
           d="m 129.92295,488.02786 a 66.695282,66.695282 0 0 1 -34.524016,0 l 17.262006,-64.4227 z"
           sodipodi:start="1.3089969"
           sodipodi:end="1.8325957"
           transform="matrix(0.2588191,-0.9659258,0.9659258,0.2588191,-298.63039,357.89749)" />
        <path
           transform="matrix(-1,-5.9831005e-8,5.9831005e-8,-1,252.36051,782.31762)"
           sodipodi:end="2.6179939"
           sodipodi:start="0.52359878"
           d="M 170.42075,456.9528 A 66.695282,66.695282 0 0 1 112.66094,490.30045 66.695282,66.695282 0 0 1 54.901133,456.9528 l 57.759807,-33.34764 z"
           sodipodi:ry="66.695282"
           sodipodi:rx="66.695282"
           sodipodi:cy="423.60516"
           sodipodi:cx="112.66094"
           id="path3918"
           style="opacity:1;fill:url(#linearGradient6142);fill-opacity:1;fill-rule:evenodd;stroke:none;stroke-width:4.19999981;stroke-linecap:round;stroke-linejoin:round;stroke-miterlimit:4;stroke-dasharray:none;stroke-dashoffset:0;stroke-opacity:1"
           sodipodi:type="arc"
           inkscape:transform-center-y="-33.402436"
           inkscape:transform-center-x="-2.4633892e-05" />
      </g>
      <circle
         r="56.781116"
         cy="566.00861"
         cx="230.72961"
         transform="matrix(1.0966347,0,0,1.0966347,-9.237,-129.94197)"
         id="path3920"
         style="fill:url(#radialGradient6144);fill-opacity:1;fill-rule:nonzero;stroke:none;stroke-width:4.19999981;stroke-linecap:round;stroke-linejoin:round;stroke-miterlimit:4;stroke-dasharray:none;stroke-dashoffset:0;stroke-opacity:1" />
      <circle
         r="56.781116"
         cy="566.00861"
         cx="230.72961"
         transform="matrix(-1.0802692,0,0,-1.0802692,493.03919,1102.2044)"
         id="path3922"
         style="fill:none;fill-opacity:1;fill-rule:evenodd;stroke:url(#linearGradient6146);stroke-width:2.03006411;stroke-linecap:round;stroke-linejoin:round;stroke-miterlimit:4;stroke-dasharray:none;stroke-dashoffset:0;stroke-opacity:1" />
      <rect
         y="433.996"
         x="242.70221"
         height="11.537268"
         width="2.1736882"
         id="rect3924"
         style="fill:#ffffff;fill-opacity:1;fill-rule:nonzero;stroke:none;stroke-width:3;stroke-linecap:round;stroke-linejoin:round;stroke-miterlimit:4;stroke-dasharray:none;stroke-dashoffset:0;stroke-opacity:1" />
      <rect
         transform="matrix(0.8660254,-0.5,0.5,0.8660254,0,0)"
         style="fill:#ffffff;fill-opacity:1;fill-rule:nonzero;stroke:none;stroke-width:3;stroke-linecap:round;stroke-linejoin:round;stroke-miterlimit:4;stroke-dasharray:none;stroke-dashoffset:0;stroke-opacity:1"
         id="rect3926"
         width="2.1736882"
         height="11.537268"
         x="-35.340668"
         y="490.14078" />
      <rect
         transform="matrix(0.5,-0.8660254,0.8660254,0.5,0,0)"
         y="399.74216"
         x="-304.20526"
         height="11.537268"
         width="2.1736882"
         id="rect3928"
         style="fill:#ffffff;fill-opacity:1;fill-rule:nonzero;stroke:none;stroke-width:3;stroke-linecap:round;stroke-linejoin:round;stroke-miterlimit:4;stroke-dasharray:none;stroke-dashoffset:0;stroke-opacity:1" />
      <path
         sodipodi:open="true"
         sodipodi:end="3.6651914"
         sodipodi:start="2.6179939"
         transform="matrix(-0.9151079,0,0,-0.9151079,454.93159,1008.7217)"
         d="m 181.55572,594.39916 a 56.781116,56.781116 0 0 1 0,-56.78111"
         sodipodi:ry="56.781116"
         sodipodi:rx="56.781116"
         sodipodi:cy="566.00861"
         sodipodi:cx="230.72961"
         id="path4367"
         style="fill:none;fill-opacity:1;fill-rule:evenodd;stroke:#ff0000;stroke-width:3.27830195;stroke-linecap:butt;stroke-linejoin:round;stroke-miterlimit:4;stroke-dasharray:none;stroke-dashoffset:0;stroke-opacity:1"
         sodipodi:type="arc" />
      <rect
         transform="matrix(0.5,-0.8660254,0.8660254,0.5,0,0)"
         style="fill:#ffffff;fill-opacity:1;fill-rule:nonzero;stroke:none;stroke-width:3;stroke-linecap:round;stroke-linejoin:round;stroke-miterlimit:4;stroke-dasharray:none;stroke-dashoffset:0;stroke-opacity:1"
         id="rect3930"
         width="2.1736882"
         height="11.537268"
         x="-304.20526"
         y="501.73828" />
      <rect
         transform="matrix(0,-1,1,0,0,0)"
         style="fill:#ffffff;fill-opacity:1;fill-rule:nonzero;stroke:none;stroke-width:3;stroke-linecap:round;stroke-linejoin:round;stroke-miterlimit:4;stroke-dasharray:none;stroke-dashoffset:0;stroke-opacity:1"
         id="rect3932"
         width="2.1736882"
         height="11.537268"
         x="-491.84952"
         y="187.02235" />
      <rect
         transform="matrix(0,-1,1,0,0,0)"
         y="289.01849"
         x="-491.84952"
         height="11.537268"
         width="2.1736882"
         id="rect3934"
         style="fill:#ffffff;fill-opacity:1;fill-rule:nonzero;stroke:none;stroke-width:3;stroke-linecap:round;stroke-linejoin:round;stroke-miterlimit:4;stroke-dasharray:none;stroke-dashoffset:0;stroke-opacity:1" />
      <rect
         transform="matrix(-0.5,-0.8660254,0.8660254,-0.5,0,0)"
         y="-91.020523"
         x="-547.99432"
         height="11.537268"
         width="2.1736882"
         id="rect3936"
         style="fill:#ffffff;fill-opacity:1;fill-rule:nonzero;stroke:none;stroke-width:3;stroke-linecap:round;stroke-linejoin:round;stroke-miterlimit:4;stroke-dasharray:none;stroke-dashoffset:0;stroke-opacity:1" />
      <rect
         transform="matrix(-0.5,-0.8660254,0.8660254,-0.5,0,0)"
         style="fill:#ffffff;fill-opacity:1;fill-rule:nonzero;stroke:none;stroke-width:3;stroke-linecap:round;stroke-linejoin:round;stroke-miterlimit:4;stroke-dasharray:none;stroke-dashoffset:0;stroke-opacity:1"
         id="rect3938"
         width="2.1736882"
         height="11.537268"
         x="-547.99432"
         y="10.975605" />
      <rect
         transform="matrix(-0.8660254,-0.5,0.5,-0.8660254,0,0)"
         y="-257.88898"
         x="-457.5957"
         height="11.537268"
         width="2.1736882"
         id="rect3940"
         style="fill:#ffffff;fill-opacity:1;fill-rule:nonzero;stroke:none;stroke-width:3;stroke-linecap:round;stroke-linejoin:round;stroke-miterlimit:4;stroke-dasharray:none;stroke-dashoffset:0;stroke-opacity:1" />
      <circle
         r="56.781116"
         cy="566.00861"
         cx="230.72961"
         style="fill:none;fill-opacity:1;fill-rule:evenodd;stroke:#ffffff;stroke-width:2.03006411;stroke-linecap:round;stroke-linejoin:round;stroke-miterlimit:4;stroke-dasharray:none;stroke-dashoffset:0;stroke-opacity:1"
         id="path4363"
         transform="matrix(-0.9937582,0,0,-0.9937582,473.07855,1053.2384)" />
      <g
         transform="translate(228.06542,463.26305)"
         id="g5586">
        <path
           inkscape:connector-curvature="0"
           style="font-style:normal;font-variant:normal;font-weight:normal;font-stretch:normal;font-size:9.48371983px;line-height:125%;font-family:'URW Bookman L';-inkscape-font-specification:'URW Bookman L';text-align:start;writing-mode:lr-tb;text-anchor:start;fill:#ffffff;fill-opacity:1;stroke:none;stroke-width:1px;stroke-linecap:butt;stroke-linejoin:miter;stroke-opacity:1"
           d="m 16.985011,-15.919452 -0.900954,0 -0.170707,0.227609 -1.451009,2.095903 -1.488944,1.982097 0.142256,0.388833 2.968404,0 0,0.398316 c 0,0.426767 -0.01897,0.616442 -0.08535,0.758697 -0.07587,0.1707071 -0.284512,0.284512 -0.521605,0.3034794 l -0.312962,0.018967 0,0.2845116 2.740795,0 0,-0.2845116 -0.312963,-0.018967 c -0.237093,-0.018967 -0.436251,-0.1327723 -0.521605,-0.3034794 -0.0569,-0.142255 -0.08535,-0.341414 -0.08535,-0.758697 l 0,-0.398316 1.232883,0 0.208642,-0.540573 -1.441525,0 0,-4.153869 m -0.900954,4.153869 -2.437316,0 c 0.04742,-0.07587 0.09484,-0.142255 0.15174,-0.208641 l 0.587991,-0.796633 0.844051,-1.157014 0.853534,-1.185465 0,3.347753"
           id="text4187" />
        <path
           inkscape:connector-curvature="0"
           transform="matrix(0,-1,1,0,0,0)"
           style="font-style:normal;font-variant:normal;font-weight:normal;font-stretch:normal;font-size:9.48371983px;line-height:125%;font-family:'URW Bookman L';-inkscape-font-specification:'URW Bookman L';text-align:start;writing-mode:lr-tb;text-anchor:start;fill:#ffffff;fill-opacity:1;stroke:none;stroke-width:1px;stroke-linecap:butt;stroke-linejoin:miter;stroke-opacity:1"
           d="m -27.001736,-27.695407 -0.303479,0 c -0.616441,0.142256 -0.815601,0.180191 -1.763972,0.293995 l 0,0.284512 0.379349,0.01897 c 0.692311,0.02845 0.787149,0.142257 0.787149,0.89147 l 0,3.632265 c 0,0.51212 -0.02845,0.66386 -0.123288,0.758697 -0.15174,0.15174 -0.436252,0.256061 -0.739731,0.275028 l -0.312962,0.01897 0,0.284511 3.233948,0 0,-0.284511 -0.303479,-0.01897 c -0.720762,-0.04742 -0.853535,-0.199159 -0.853535,-1.014758 l 0,-5.140176"
           id="text4234" />
        <path
           inkscape:connector-curvature="0"
           transform="matrix(0.5,-0.8660254,0.8660254,0.5,0,0)"
           style="font-style:normal;font-variant:normal;font-weight:normal;font-stretch:normal;font-size:9.48371983px;line-height:125%;font-family:'URW Bookman L';-inkscape-font-specification:'URW Bookman L';text-align:start;writing-mode:lr-tb;text-anchor:start;fill:#ffffff;fill-opacity:1;stroke:none;stroke-width:1px;stroke-linecap:butt;stroke-linejoin:miter;stroke-opacity:1"
           d="m -13.069152,-11.177533 -0.360381,-0.09484 -0.09484,0.218125 c -0.322447,0.73973 -0.540573,0.872502 -1.403591,0.872502 l -2.152804,0 c 1.128561,-0.711278 1.47946,-0.957856 1.944162,-1.346688 1.109594,-0.929403 1.659651,-1.801907 1.659651,-2.608023 0,-1.081143 -0.967341,-1.849325 -2.332995,-1.849325 -1.242366,0 -2.285576,0.815601 -2.285576,1.782939 0,0.455218 0.284512,0.796633 0.644893,0.796633 0.284511,0 0.540572,-0.246577 0.540572,-0.512121 0,-0.09484 -0.04742,-0.218126 -0.113805,-0.303479 -0.170707,-0.208642 -0.199158,-0.275028 -0.199158,-0.436251 0,-0.455218 0.644893,-0.872503 1.337204,-0.872503 0.777665,0 1.289786,0.512122 1.289786,1.261335 0,0.720762 -0.350898,1.441526 -1.138046,2.323512 -0.625925,0.69231 -1.204434,1.14753 -2.399381,1.877776 l 0,0.6638605 4.609088,0 0.455218,-1.7734555"
           id="text4245" />
        <path
           inkscape:connector-curvature="0"
           transform="matrix(-0.5,0.8660254,-0.8660254,-0.5,0,0)"
           style="font-style:normal;font-variant:normal;font-weight:normal;font-stretch:normal;font-size:9.48371983px;line-height:125%;font-family:'URW Bookman L';-inkscape-font-specification:'URW Bookman L';text-align:start;writing-mode:lr-tb;text-anchor:start;fill:#ffffff;fill-opacity:1;stroke:none;stroke-width:1px;stroke-linecap:butt;stroke-linejoin:miter;stroke-opacity:1"
           d="m 16.45103,-67.461959 c 0.502636,-0.132772 0.720763,-0.237093 0.957855,-0.426767 0.293996,-0.246577 0.474186,-0.606959 0.474186,-0.986307 0,-0.881985 -0.938889,-1.507911 -2.257125,-1.507911 -1.318236,0 -2.247641,0.730247 -2.247641,1.763972 0,0.36038 0.123288,0.682828 0.360381,0.948371 0.189674,0.208642 0.417284,0.341415 0.89147,0.531089 -0.597474,0.18019 -0.863019,0.312963 -1.128563,0.578507 -0.293995,0.293995 -0.464702,0.701795 -0.464702,1.100111 0,1.024241 1.062178,1.78294 2.484734,1.78294 1.50791,0 2.626991,-0.872504 2.626991,-2.048484 0,-0.417283 -0.161224,-0.806116 -0.455219,-1.07166 -0.284511,-0.275028 -0.55954,-0.417284 -1.242367,-0.663861 m -1.185465,-0.379348 c -0.692311,-0.218126 -1.052693,-0.55954 -1.052693,-1.024242 0,-0.644893 0.663861,-1.138047 1.517395,-1.138047 0.796632,0 1.375139,0.493155 1.375139,1.166498 0,0.606957 -0.426768,1.052693 -1.138046,1.213916 l -0.701795,-0.218125 m 0.919921,1.213916 c 0.749213,0.237092 1.128562,0.663861 1.128562,1.261334 0,0.758697 -0.730247,1.308754 -1.716553,1.308754 -1.052692,0 -1.726037,-0.550057 -1.726037,-1.394107 0,-0.711278 0.37935,-1.185465 1.2234,-1.517395 l 1.090628,0.341414"
           id="text4267" />
        <path
           inkscape:connector-curvature="0"
           transform="matrix(0.8660254,-0.5,0.5,0.8660254,0,0)"
           style="font-style:normal;font-variant:normal;font-weight:normal;font-stretch:normal;font-size:9.48371983px;line-height:125%;font-family:'URW Bookman L';-inkscape-font-specification:'URW Bookman L';text-align:start;writing-mode:lr-tb;text-anchor:start;fill:#ffffff;fill-opacity:1;stroke:none;stroke-width:1px;stroke-linecap:butt;stroke-linejoin:miter;stroke-opacity:1"
           d="m -1.0318762,-8.2401603 c 0.38883211,-0.037935 0.55005585,-0.047419 0.66386038,-0.047419 0.42676696,0 0.8819862,0.1327723 1.13804638,0.3319302 C 1.0735093,-7.718556 1.263184,-7.253853 1.263184,-6.7607 c 0,0.9673384 -0.6069591,1.5363626 -1.6217161,1.5363626 -0.41728326,0 -0.7776653,-0.085354 -1.0432092,-0.2560605 -0.1801905,-0.1138045 -0.3224465,-0.3224466 -0.3224465,-0.4741859 0,-0.028451 0.00948,-0.056902 0.018968,-0.104321 0.066386,-0.2086416 0.066386,-0.2086419 0.066386,-0.3224464 0,-0.3034788 -0.2181258,-0.5310883 -0.5310883,-0.5310883 -0.3224461,0 -0.5785069,0.2939956 -0.5785069,0.6543766 0,0.3508973 0.2276096,0.7112793 0.5974744,0.9768232 0.4741855,0.3319298 1.0337261,0.4836697 1.75448812,0.4836697 1.59326338,0 2.73131128,-0.8250848 2.73131128,-1.9820975 0,-0.5595389 -0.2939958,-1.0621769 -0.777665,-1.3466882 C 1.2537006,-8.3065462 1.007123,-8.3919 0.42861664,-8.5057045 0.96918813,-8.6289927 1.2157656,-8.7333139 1.4623421,-8.9229881 c 0.3319299,-0.2655439 0.540572,-0.6543771 0.540572,-1.0337255 0,-0.8914684 -0.957857,-1.5458464 -2.266609,-1.5458464 -0.56902262,0 -1.0432096,0.132772 -1.422558,0.388833 -0.4362507,0.293995 -0.711279,0.730246 -0.711279,1.1475297 0,0.3508973 0.2370933,0.606958 0.5500558,0.606958 0.2845113,0 0.5216046,-0.208642 0.5216046,-0.4552185 0,-0.066386 -0.018967,-0.1422559 -0.047419,-0.2276092 -0.1138045,-0.25606 -0.1138047,-0.256061 -0.1138047,-0.33193 0,-0.388832 0.52160527,-0.701796 1.16649758,-0.701796 0.78714796,0 1.29926961,0.464703 1.29926961,1.1854654 0,0.3224462 -0.142256,0.682828 -0.35089763,0.8630185 -0.24657647,0.2276091 -0.72076317,0.3793488 -1.18546498,0.3793488 -0.0758697,0 -0.23709323,-0.00948 -0.47418598,-0.018967 l 0,0.4267674"
           id="text4278" />
        <path
           inkscape:connector-curvature="0"
           transform="matrix(0,1,-1,0,0,0)"
           style="font-style:normal;font-variant:normal;font-weight:normal;font-stretch:normal;font-size:9.48371983px;line-height:125%;font-family:'URW Bookman L';-inkscape-font-specification:'URW Bookman L';text-align:start;writing-mode:lr-tb;text-anchor:start;fill:#ffffff;fill-opacity:1;stroke:none;stroke-width:1px;stroke-linecap:butt;stroke-linejoin:miter;stroke-opacity:1"
           d="m 30.524938,-59.109567 -4.609087,0 -0.303479,1.688102 0.303479,0 c 0.123288,-0.360381 0.218125,-0.521604 0.407799,-0.673344 0.246577,-0.189674 0.464703,-0.237093 1.100112,-0.237093 l 2.484735,0 c -1.65965,1.697584 -2.835633,3.802974 -3.177047,5.680748 l 1.2234,0 c 0.113805,-1.299268 0.312964,-2.029517 0.834568,-3.120143 0.606957,-1.185464 1.138047,-1.982099 1.81139,-2.740795 l -0.07587,-0.597475"
           id="text4289" />
        <path
           inkscape:connector-curvature="0"
           transform="matrix(0.8660254,0.5,-0.5,0.8660254,0,0)"
           style="font-style:normal;font-variant:normal;font-weight:normal;font-stretch:normal;font-size:9.48371983px;line-height:125%;font-family:'URW Bookman L';-inkscape-font-specification:'URW Bookman L';text-align:start;writing-mode:lr-tb;text-anchor:start;fill:#ffffff;fill-opacity:1;stroke:none;stroke-width:1px;stroke-linecap:butt;stroke-linejoin:miter;stroke-opacity:1"
           d="m 29.097699,-27.834909 -0.360382,0 c -0.170706,0.293995 -0.284512,0.341414 -0.768181,0.341414 l -2.864083,0 0,3.404655 0.4078,0.09484 c 0.474185,-0.654376 0.844051,-0.872503 1.488944,-0.872503 1.005273,0 1.631199,0.673345 1.631199,1.735521 0,1.090627 -0.682828,1.792423 -1.73552,1.792423 -0.616441,0 -1.128563,-0.265544 -1.128563,-0.587991 l 0.0095,-0.10432 c 0.08535,-0.275028 0.08535,-0.275028 0.08535,-0.350898 0,-0.284511 -0.25606,-0.531088 -0.550056,-0.531088 -0.322446,0 -0.578506,0.275028 -0.578506,0.606958 0,0.787148 1.005275,1.394106 2.29506,1.394106 1.583779,0 2.674409,-0.96734 2.674409,-2.361446 0,-1.270817 -0.976825,-2.14332 -2.389898,-2.14332 -0.635408,0 -1.062177,0.15174 -1.621716,0.597474 l 0,-1.896744 3.243432,0 0.161224,-1.119079"
           id="text4319" />
        <path
           inkscape:connector-curvature="0"
           transform="matrix(0.5,0.8660254,-0.8660254,0.5,0,0)"
           style="font-style:normal;font-variant:normal;font-weight:normal;font-stretch:normal;font-size:9.48371983px;line-height:125%;font-family:'URW Bookman L';-inkscape-font-specification:'URW Bookman L';text-align:start;writing-mode:lr-tb;text-anchor:start;fill:#ffffff;fill-opacity:1;stroke:none;stroke-width:1px;stroke-linecap:butt;stroke-linejoin:miter;stroke-opacity:1"
           d="m 29.228536,-39.99864 c 0.03794,-0.663859 0.03794,-0.711279 0.07587,-0.99579 0.180191,-1.365654 0.758699,-2.048484 1.716553,-2.048484 0.369865,0 0.701796,0.113805 0.881986,0.293996 0.06639,0.06639 0.08535,0.132772 0.09484,0.265544 0,0.445734 0.237093,0.749214 0.597474,0.749214 0.284511,0 0.493153,-0.199159 0.493153,-0.464703 0,-0.644892 -0.957856,-1.223399 -2.038999,-1.223399 -0.986306,0 -1.906229,0.540572 -2.37093,1.394106 -0.312963,0.58799 -0.48367,1.365657 -0.48367,2.171772 0,0.881985 0.218126,1.669135 0.597474,2.190739 0.436251,0.587991 1.19495,0.948372 2.029516,0.948372 1.432041,0 2.541637,-0.938889 2.541637,-2.162288 0,-1.204431 -0.967341,-2.086418 -2.285576,-2.086418 -0.806116,0 -1.356173,0.293996 -1.849326,0.967339 m 1.6312,-0.474186 c 0.863018,0 1.432042,0.644894 1.432042,1.640684 0,1.014757 -0.578508,1.659651 -1.488944,1.659651 -0.929404,0 -1.488944,-0.606959 -1.488944,-1.593265 0,-1.043208 0.597475,-1.70707 1.545846,-1.70707"
           id="text4330" />
        <path
           inkscape:connector-curvature="0"
           transform="matrix(-0.5,-0.8660254,0.8660254,-0.5,0,0)"
           style="font-style:normal;font-variant:normal;font-weight:normal;font-stretch:normal;font-size:9.48371983px;line-height:125%;font-family:'URW Bookman L';-inkscape-font-specification:'URW Bookman L';text-align:start;writing-mode:lr-tb;text-anchor:start;fill:#ffffff;fill-opacity:1;stroke:none;stroke-width:1px;stroke-linecap:butt;stroke-linejoin:miter;stroke-opacity:1"
           d="m -31.519568,-43.274573 c -0.625925,0 -1.251852,0.265545 -1.659651,0.711279 -0.559539,0.606958 -0.919921,1.631201 -0.919921,2.617507 0,2.001063 1.052694,3.376204 2.579572,3.376204 1.526877,0 2.598539,-1.365657 2.598539,-3.309818 0,-2.02003 -1.052695,-3.395172 -2.598539,-3.395172 m 0.03794,0.455219 c 0.407799,0 0.777665,0.189675 1.033725,0.550056 0.322446,0.426767 0.502637,1.289787 0.502637,2.323511 0,0.777664 -0.104321,1.488945 -0.303479,1.991581 -0.208642,0.559539 -0.711279,0.929405 -1.251851,0.929405 -0.606957,0 -1.128563,-0.426768 -1.346688,-1.109596 -0.151739,-0.483669 -0.227609,-1.07166 -0.227609,-1.707069 0,-0.711278 0.151739,-1.574298 0.360381,-2.105386 0.218125,-0.540571 0.682828,-0.872502 1.232884,-0.872502"
           id="text4341" />
        <path
           inkscape:connector-curvature="0"
           style="font-style:normal;font-variant:normal;font-weight:normal;font-stretch:normal;font-size:12px;line-height:125%;font-family:'URW Bookman L';-inkscape-font-specification:'URW Bookman L';text-align:center;writing-mode:lr-tb;text-anchor:middle;fill:#ffffff;fill-opacity:1;stroke:none;stroke-width:1px;stroke-linecap:butt;stroke-linejoin:miter;stroke-opacity:1"
           d="m 7.942613,59.435871 c 0.7439993,-0.108 1.0800004,-0.24 1.476,-0.564 0.4799996,-0.383999 0.744,-0.948 0.744,-1.572 0,-1.283998 -1.0440017,-2.064 -2.772,-2.064 l -4.884,0 0,0.372 0.3,0.036 c 0.6239994,0.084 0.78,0.336001 0.78,1.32 l 0,4.716 c 0,0.983999 -0.1560006,1.236 -0.78,1.32 l -0.3,0.036 0,0.372 3.492,0 0,-0.372 -0.432,-0.036 c -0.6119994,-0.06 -0.78,-0.348001 -0.78,-1.32 l 0,-2.124 1.728,0 2.7,3.852 2.004,0 0,-0.372 c -0.587999,-0.108 -0.912,-0.3 -1.284,-0.78 l -1.992,-2.82 m -3.156,-0.396 0,-2.604 c 0,-0.263999 0.096,-0.42 0.312,-0.516 0.2399998,-0.108 0.8520006,-0.192 1.464,-0.192 1.5359985,0 2.304,0.540001 2.304,1.62 0,0.528 -0.2280004,1.008001 -0.624,1.32 -0.3359996,0.264 -0.7680006,0.372 -1.44,0.372 l -2.016,0 m 8.648438,0.876 1.692,0 c 0.791999,0 1.512,-0.168 1.98,-0.456 0.623999,-0.395999 1.032,-1.152001 1.032,-1.932 0,-1.415998 -1.152002,-2.292 -3,-2.292 l -3.984,0 0,0.372 0.3,0.036 c 0.623999,0.084 0.78,0.336001 0.78,1.32 l 0,4.716 c 0,0.983999 -0.156001,1.236 -0.78,1.32 l -0.3,0.036 0,0.372 3.504,0 0,-0.372 -0.444,-0.036 c -0.6,-0.048 -0.78,-0.348001 -0.78,-1.32 l 0,-1.764 m 0,-0.516 0,-2.892 c 0,-0.647999 0.216001,-0.768 1.368,-0.768 0.815999,0 1.308,0.156001 1.656,0.54 0.299999,0.324 0.456,0.768001 0.456,1.284 0,0.504 -0.156001,0.936001 -0.456,1.272 -0.36,0.408 -0.804001,0.564 -1.524,0.564 l -1.5,0 m 10.213687,4.008 3.012,-7.32 0,5.592 c 0,0.983999 -0.156001,1.236 -0.78,1.32 l -0.3,0.036 0,0.372 3.36,0 0,-0.372 -0.3,-0.036 c -0.623999,-0.084 -0.78,-0.336001 -0.78,-1.32 l 0,-4.716 c 0,-0.983999 0.156001,-1.236 0.78,-1.32 l 0.3,-0.036 0,-0.372 -2.736,0 -2.508,6.18 -2.304,-6.18 -2.796,0 0,0.372 0.3,0.036 c 0.623999,0.084 0.78,0.336001 0.78,1.32 l 0,4.716 c 0,0.971999 -0.168001,1.26 -0.78,1.32 l -0.372,0.036 0,0.372 3.036,0 0,-0.372 -0.42,-0.036 c -0.611999,-0.06 -0.78,-0.348001 -0.78,-1.32 l 0,-5.736 2.748,7.464 0.54,0"
           id="text4412" />
        <path
           inkscape:connector-curvature="0"
           style="font-style:normal;font-variant:normal;font-weight:normal;font-stretch:normal;font-size:6.40697622px;line-height:125%;font-family:'URW Bookman L';-inkscape-font-specification:'URW Bookman L';text-align:center;writing-mode:lr-tb;text-anchor:middle;fill:#ffffff;fill-opacity:1;stroke:none;stroke-width:1px;stroke-linecap:butt;stroke-linejoin:miter;stroke-opacity:1"
           d="M 7.5837133,51.118418 8.1411202,50.522569 C 8.4870966,50.182999 8.6793066,50.07408 9.1021666,49.99079 l 0,-0.19221 -1.351872,0 0,0.19221 c 0.2370579,0.03204 0.288314,0.05766 0.288314,0.166581 0,0.04485 -0.025628,0.102512 -0.06407,0.153768 l -0.544593,0.615069 -0.5061511,-0.615069 c -0.044849,-0.06407 -0.076884,-0.121733 -0.076884,-0.160175 0,-0.0897 0.076884,-0.134546 0.262686,-0.153767 l 0.06407,-0.0064 0,-0.19221 -1.5889301,0 0,0.19221 c 0.3075345,0.04485 0.4228606,0.121733 0.6535115,0.390825 l 0.7496163,0.941826 -0.813686,0.916197 C 5.8858645,52.566401 5.7192826,52.668913 5.411748,52.713762 l 0,0.192209 1.4351627,0 0,-0.192209 -0.051256,-0.01281 C 6.5201555,52.662499 6.4176436,52.598429 6.4176436,52.47029 c 0,-0.06407 0.044849,-0.153768 0.1153255,-0.230652 l 0.6406977,-0.717581 0.5766278,0.807279 c 0.038442,0.05126 0.06407,0.12814 0.06407,0.172988 0,0.121733 -0.076884,0.166582 -0.3844186,0.211431 l 0,0.192209 1.7747324,0 0,-0.192209 C 8.8587019,52.656092 8.7433757,52.579208 8.461469,52.239638 l -0.8777557,-1.12122 m 3.9502007,-2.575605 -0.205023,0 c -0.416453,0.0961 -0.551001,0.121733 -1.191697,0.198616 l 0,0.19221 0.256279,0.01281 c 0.467708,0.01922 0.531779,0.09611 0.531779,0.602255 l 0,2.453872 c 0,0.345977 -0.01922,0.448489 -0.08329,0.512558 -0.102512,0.102512 -0.294721,0.172989 -0.499744,0.185803 l -0.21143,0.01281 0,0.192209 2.184778,0 0,-0.192209 -0.205023,-0.01281 c -0.48693,-0.03204 -0.576628,-0.134547 -0.576628,-0.685547 l 0,-3.472581 m 3.537552,-0.08329 c -0.42286,0 -0.845721,0.179396 -1.121221,0.480524 -0.378011,0.410046 -0.621477,1.102 -0.621477,1.768325 0,1.351871 0.711176,2.280884 1.742698,2.280884 1.031522,0 1.755511,-0.922606 1.755511,-2.236035 0,-1.364685 -0.711175,-2.293698 -1.755511,-2.293698 m 0.02563,0.307535 c 0.2755,0 0.525372,0.12814 0.69836,0.371605 0.217837,0.288314 0.33957,0.871349 0.33957,1.569709 0,0.525372 -0.07048,1.005896 -0.205023,1.345465 -0.140954,0.378011 -0.480524,0.627884 -0.845721,0.627884 -0.410046,0 -0.76243,-0.288315 -0.909791,-0.749616 -0.102511,-0.326756 -0.153767,-0.723989 -0.153767,-1.153256 0,-0.480523 0.102512,-1.063559 0.243465,-1.422349 0.14736,-0.365197 0.461303,-0.589442 0.832907,-0.589442 m 3.941192,-0.307535 c -0.42286,0 -0.845721,0.179396 -1.121221,0.480524 -0.378011,0.410046 -0.621477,1.102 -0.621477,1.768325 0,1.351871 0.711176,2.280884 1.742698,2.280884 1.031522,0 1.755511,-0.922606 1.755511,-2.236035 0,-1.364685 -0.711175,-2.293698 -1.755511,-2.293698 m 0.02563,0.307535 c 0.275499,0 0.525372,0.12814 0.69836,0.371605 0.217837,0.288314 0.33957,0.871349 0.33957,1.569709 0,0.525372 -0.07048,1.005896 -0.205023,1.345465 -0.140954,0.378011 -0.480524,0.627884 -0.845721,0.627884 -0.410046,0 -0.762431,-0.288315 -0.909791,-0.749616 -0.102511,-0.326756 -0.153767,-0.723989 -0.153767,-1.153256 0,-0.480523 0.102511,-1.063559 0.243465,-1.422349 0.14736,-0.365197 0.461302,-0.589442 0.832907,-0.589442 m 3.941191,-0.307535 c -0.42286,0 -0.845722,0.179396 -1.121221,0.480524 -0.378012,0.410046 -0.621477,1.102 -0.621477,1.768325 0,1.351871 0.711175,2.280884 1.742698,2.280884 1.031522,0 1.755511,-0.922606 1.755511,-2.236035 0,-1.364685 -0.711175,-2.293698 -1.755511,-2.293698 m 0.02563,0.307535 c 0.2755,0 0.525373,0.12814 0.698361,0.371605 0.217837,0.288314 0.33957,0.871349 0.33957,1.569709 0,0.525372 -0.07048,1.005896 -0.205024,1.345465 -0.140953,0.378011 -0.480523,0.627884 -0.845721,0.627884 -0.410046,0 -0.76243,-0.288315 -0.90979,-0.749616 -0.102512,-0.326756 -0.153768,-0.723989 -0.153768,-1.153256 0,-0.480523 0.102512,-1.063559 0.243466,-1.422349 0.14736,-0.365197 0.461302,-0.589442 0.832906,-0.589442"
           id="text4420" />
      </g>
    </g>
  </g>
  <g
     transform="translate(24.28571,-619.50502)"
     id="layer_main"
     inkscape:groupmode="layer"
     inkscape:label="main"
     style="display:inline">
    <g
       transform="matrix(1.5392742,-0.88870035,0.88870035,1.5392742,-633.98716,34.154248)"
       inkscape:label="#g3449"
       id="g6114">
      <path
         inkscape:connector-curvature="0"
         style="fill:url(#linearGradient6645);fill-opacity:1;fill-rule:nonzero;stroke:none;stroke-width:3;stroke-linecap:round;stroke-linejoin:round;stroke-miterlimit:4;stroke-dashoffset:0;stroke-opacity:1"
         d="m 98.297656,572.52643 0,-0.88542 64.999994,-2.13542 1e-5,5 -65.000004,-1.97916 z"
         id="path6116"
         sodipodi:nodetypes="ccccc"
         inkscape:label="#path3978" />
      <path
         inkscape:connector-curvature="0"
         inkscape:label="#path3978"
         sodipodi:nodetypes="ccccc"
         id="path6118"
         d="m 228.29766,571.48475 0,0.88542 -64.99999,2.13542 -1e-5,-5 65,1.97916 z"
         style="fill:none;fill-opacity:1;fill-rule:nonzero;stroke:none;stroke-width:3;stroke-linecap:round;stroke-linejoin:round;stroke-miterlimit:4;stroke-dashoffset:0;stroke-opacity:1"
         inkscape:transform-center-x="-32.5" />
    </g>
    <rect
       style="fill:none;fill-opacity:1;fill-rule:nonzero;stroke:none;stroke-width:1.71964025;stroke-linecap:round;stroke-linejoin:miter;stroke-miterlimit:4;stroke-dasharray:none;stroke-dashoffset:0;stroke-opacity:1"
       id="rect6132"
       width="275.33563"
       height="275.33563"
       x="-11.953465"
       y="631.83722"
       rx="0"
       ry="0" />
  </g>
  <g
     style="display:inline"
     inkscape:label="high"
     inkscape:groupmode="layer"
     id="layer_high"
     transform="translate(24.28571,-619.50502)">
    <g
       id="g6307"
       transform="matrix(0.9015801,0,0,0.9015801,2177.0467,1361.0598)">
      <g
         transform="matrix(1.8045881,0,0,1.8045881,-2898.8329,-1301.3162)"
         inkscape:label="#g8958"
         id="g6309">
        <path
           style="fill:url(#linearGradient6652);fill-opacity:1;fill-rule:nonzero;stroke:none;stroke-width:3;stroke-linecap:round;stroke-linejoin:round;stroke-miterlimit:4;stroke-dashoffset:0;stroke-opacity:1"
           d="m 418.97205,324.27918 c 0,22.38496 -28.72794,-9.79932 -73.58157,-9.79932 -44.85364,0 -73.79557,36.18041 -73.79557,9.79932 0,-0.92188 19.49086,-47.47935 73.6089,-47.47935 53.13862,0 73.76824,46.59758 73.76824,47.47935 z"
           id="path6311"
           sodipodi:nodetypes="cssss"
           inkscape:connector-curvature="0" />
        <g
           id="g6313"
           transform="translate(178.94649,-55.881652)">
          <circle
             transform="matrix(0.8484848,0,0,0.8484848,66.299193,64.340127)"
             style="opacity:1;fill:url(#linearGradient6654);fill-opacity:1;fill-rule:nonzero;stroke:none;stroke-width:3;stroke-linecap:round;stroke-linejoin:round;stroke-miterlimit:4;stroke-dasharray:none;stroke-dashoffset:0;stroke-opacity:1"
             id="circle6315"
             cx="117.90171"
             cy="412.02618"
             r="21.031116" />
          <circle
             transform="matrix(0.7424242,0,0,0.7424242,78.803919,108.03987)"
             id="circle6317"
             style="opacity:1;fill:url(#linearGradient6656);fill-opacity:1;fill-rule:nonzero;stroke:none;stroke-width:3;stroke-linecap:round;stroke-linejoin:round;stroke-miterlimit:4;stroke-dasharray:none;stroke-dashoffset:0;stroke-opacity:1"
             cx="117.90171"
             cy="412.02618"
             r="21.031116" />
        </g>
      </g>
      <rect
         style="fill:none;fill-opacity:1;fill-rule:nonzero;stroke:none;stroke-width:1.71964025;stroke-linecap:round;stroke-linejoin:miter;stroke-miterlimit:4;stroke-dasharray:none;stroke-dashoffset:0;stroke-opacity:1"
         id="rect6319"
         width="305.3923"
         height="305.3923"
         x="-2427.9597"
         y="-808.82727"
         rx="0"
         ry="0" />
    </g>
  </g>
  <g
     inkscape:groupmode="layer"
     id="layer_hidden"
     inkscape:label="hidden"
     style="display:inline" />
</svg>
