<?xml version="1.0" encoding="UTF-8"?>
<svg width="689.724" height="324.02335" xmlns="http://www.w3.org/2000/svg" xmlns:xlink="http://www.w3.org/1999/xlink">
 <title>Car Top View</title>
 <metadata id="metadata3">BMW Z4 from toptransportOpen Clip Art LibraryAubanel MONNIERAubanel MONNIERimage/svg+xmlen</metadata>
 <defs>
  <linearGradient id="linearGradient3258">
   <stop stop-color="#3f3a4a" offset="0" id="stop3259"/>
   <stop stop-color="#afaa9d" offset="1" id="stop3260"/>
  </linearGradient>
  <linearGradient id="linearGradient3225">
   <stop stop-color="#000000" stop-opacity="0.3804" offset="0" id="stop3226"/>
   <stop stop-color="#000000" stop-opacity="0" offset="1" id="stop3227"/>
  </linearGradient>
  <linearGradient id="linearGradient3178">
   <stop stop-color="#ffff97" offset="0" id="stop3179"/>
   <stop stop-color="#ffffe7" offset="1" id="stop3180"/>
  </linearGradient>
  <linearGradient id="linearGradient3109">
   <stop stop-color="#dddaff" stop-opacity="0.8196" offset="0" id="stop3110"/>
   <stop stop-color="#6a72ff" stop-opacity="0.5843" offset="1" id="stop3111"/>
  </linearGradient>
  <linearGradient id="linearGradient3061">
   <stop stop-color="#ffff00" stop-opacity="0.5804" offset="0" id="stop3062"/>
   <stop stop-color="#ffffff" stop-opacity="0" offset="1" id="stop3063"/>
  </linearGradient>
  <linearGradient id="linearGradient3042">
   <stop stop-color="#000000" stop-opacity="0.902" offset="0" id="stop3043"/>
   <stop stop-color="#000000" stop-opacity="0" offset="1" id="stop3044"/>
  </linearGradient>
  <linearGradient id="linearGradient3034">
   <stop stop-color="#ff0000" stop-opacity="0.5804" offset="0" id="stop3035"/>
   <stop stop-color="#ffffff" stop-opacity="0" offset="1" id="stop3036"/>
  </linearGradient>
  <linearGradient id="linearGradient3012">
   <stop stop-color="#ffffff" stop-opacity="0.902" offset="0" id="stop3013"/>
   <stop stop-color="#ffffff" stop-opacity="0" offset="1" id="stop3014"/>
  </linearGradient>
  <linearGradient id="linearGradient650">
   <stop stop-color="#000" offset="0" id="stop651"/>
   <stop stop-color="#fff" offset="1" id="stop652"/>
  </linearGradient>
  <linearGradient y2="0.067547" x2="0.506327" y1="0.932448" x1="1.027059" id="linearGradient3001" xlink:href="#linearGradient3258"/>
  <linearGradient y2="-0.012537" x2="1.005891" y1="-0.012537" x1="-0.005938" id="linearGradient3003" xlink:href="#linearGradient3042"/>
  <linearGradient y2="0.500016" x2="0.494408" y1="1.475866" x1="0.501872" id="linearGradient3005" xlink:href="#linearGradient3042"/>
  <linearGradient y2="-0.013592" x2="1.00196" y1="-0.013592" x1="-0.001948" id="linearGradient3007" xlink:href="#linearGradient3042"/>
  <linearGradient y2="-1.316857" x2="0.939173" y1="2.314764" x1="0.968135" id="linearGradient3009" xlink:href="#linearGradient3225"/>
  <linearGradient y2="-0.01767" x2="1.002004" y1="-0.01767" x1="-0.001985" id="linearGradient3013" xlink:href="#linearGradient3225"/>
  <linearGradient y2="1.512225" x2="0.448655" y1="-0.9017" x1="0.448645" id="linearGradient3015" xlink:href="#linearGradient3042"/>
  <linearGradient y2="1.045016" x2="0.520872" y1="-0.071103" x1="0.513264" id="linearGradient3017" xlink:href="#linearGradient3012"/>
  <linearGradient y2="-1.484811" x2="0.52428" y1="0.848182" x1="0.513073" id="linearGradient3019" xlink:href="#linearGradient650"/>
  <linearGradient y2="-2.04194" x2="0.542958" y1="1.126753" x1="0.528015" id="linearGradient3021" xlink:href="#linearGradient3012"/>
  <linearGradient y2="0.804152" x2="0.494404" y1="1.108317" x1="0.513068" id="linearGradient3023" xlink:href="#linearGradient3042"/>
  <linearGradient y2="-0.006959" x2="1.002033" y1="-0.006959" x1="-0.002026" id="linearGradient3025" xlink:href="#linearGradient3042"/>
  <linearGradient y2="-0.00817" x2="-0.037401" y1="2.474834" x1="-0.017224" id="linearGradient3027" xlink:href="#linearGradient3225"/>
  <linearGradient y2="0.880108" x2="0.006372" y1="0.880108" x1="-0.693088" id="linearGradient3029" xlink:href="#linearGradient3225"/>
  <linearGradient y2="-0.650853" x2="0.569192" y1="1.913748" x1="0.48691" id="linearGradient3035" xlink:href="#linearGradient650"/>
  <linearGradient y2="-0.026146" x2="1.003047" y1="-0.026146" x1="-0.003048" id="linearGradient3037" xlink:href="#linearGradient3012"/>
  <linearGradient y2="1.245548" x2="0.911296" y1="0.025406" x1="0.035005" id="linearGradient3043" xlink:href="#linearGradient3258"/>
  <linearGradient y2="1.202181" x2="0.359393" y1="0.067945" x1="1.108144" id="linearGradient3048" xlink:href="#linearGradient3012"/>
  <linearGradient y2="0.206451" x2="0.965102" y1="-1.117993" x1="0.019379" id="linearGradient3050" xlink:href="#linearGradient3258"/>
  <linearGradient y2="0.15938" x2="0.369472" y1="-1.071817" x1="1.177548" id="linearGradient3052" xlink:href="#linearGradient3012"/>
  <linearGradient y2="0.458016" x2="0.24671" y1="0.583804" x1="0.501859" id="linearGradient3057" xlink:href="#linearGradient3258"/>
  <linearGradient y2="-0.017132" x2="1.00464" y1="-0.017132" x1="-0.004682" id="linearGradient3059" xlink:href="#linearGradient3042"/>
  <linearGradient y2="-4.496143" x2="2.980806" y1="-4.417418" x1="0.244421" id="linearGradient3062" xlink:href="#linearGradient650"/>
  <linearGradient y2="-9.062275" x2="1.013325" y1="-9.062275" x1="0.004642" id="linearGradient3107" xlink:href="#linearGradient3042"/>
  <linearGradient y2="-3.751349" x2="0.513066" y1="1.701362" x1="0.516792" id="linearGradient3110" xlink:href="#linearGradient3042"/>
  <linearGradient y2="1.146845" x2="0.542942" y1="0.222659" x1="0.539204" id="linearGradient3114" xlink:href="#linearGradient3042"/>
  <linearGradient y2="0.349271" x2="1.10623" y1="0.43653" x1="-0.184214" id="linearGradient3116" xlink:href="#linearGradient650"/>
  <linearGradient y2="-0.007691" x2="1.006965" y1="-0.007691" x1="-0.006956" id="linearGradient3118" xlink:href="#linearGradient3042"/>
  <linearGradient y2="-0.145547" x2="1.351956" y1="0.635448" x1="0.293609" id="linearGradient3120" xlink:href="#linearGradient650"/>
  <linearGradient y2="-0.010063" x2="1.013295" y1="-0.010063" x1="-0.013273" id="linearGradient3122" xlink:href="#linearGradient3012"/>
  <linearGradient y2="0.06766" x2="0.506347" y1="0.932457" x1="1.02708" id="linearGradient3124" xlink:href="#linearGradient3258"/>
  <linearGradient y2="-0.012413" x2="1.005912" y1="-0.012413" x1="-0.005918" id="linearGradient3129" xlink:href="#linearGradient3042"/>
  <linearGradient y2="0.488013" x2="0.531613" y1="0.00802" x1="0.527897" spreadMethod="reflect" id="linearGradient3135" xlink:href="#linearGradient3258"/>
  <linearGradient y2="0.452758" x2="1.777933" y1="0.405521" x1="0.369901" id="linearGradient3149" xlink:href="#linearGradient650"/>
  <linearGradient y2="-0.003865" x2="1.002495" y1="-0.003865" x1="-0.002513" id="linearGradient3151" xlink:href="#linearGradient3012"/>
  <linearGradient y2="0.925496" x2="0.869408" y1="0.074474" x1="0.078239" id="linearGradient3153" xlink:href="#linearGradient3178"/>
  <linearGradient y2="0.499985" x2="1.003209" y1="0.499985" x1="-0.003205" id="linearGradient3155" xlink:href="#linearGradient3178"/>
  <linearGradient y2="0.484333" x2="1.16966" y1="0.915327" x1="1.295879" id="linearGradient3157" xlink:href="#linearGradient3012"/>
  <linearGradient y2="-0.001515" x2="1.00137" y1="-0.001515" x1="-0.001364" id="linearGradient3159" xlink:href="#linearGradient3012"/>
  <linearGradient y2="0.531382" x2="1.922748" y1="0.123442" x1="-1.6605" id="linearGradient3161" xlink:href="#linearGradient650"/>
  <linearGradient y2="-0.002078" x2="1.009372" y1="-0.002078" x1="-0.009395" id="linearGradient3163" xlink:href="#linearGradient3012"/>
  <linearGradient y2="0.437315" x2="0.692297" y1="0.437315" x1="-1.125733" id="linearGradient3165" xlink:href="#linearGradient3042"/>
  <linearGradient y2="-0.001549" x2="1.006957" y1="-0.001549" x1="-0.006946" id="linearGradient3167" xlink:href="#linearGradient3042"/>
  <linearGradient y2="7.972269" x2="3.128606" y1="7.972048" x1="0.241805" id="linearGradient3169" xlink:href="#linearGradient3012"/>
  <linearGradient y2="-15.194629" x2="3.129277" y1="-15.19485" x1="0.242482" id="linearGradient3171" xlink:href="#linearGradient3012"/>
  <linearGradient y2="-0.00745" x2="1.047947" y1="-0.00745" x1="-0.034277" id="linearGradient3179" xlink:href="#linearGradient3012"/>
  <linearGradient y2="-1.093439" x2="1.047946" y1="-1.093439" x1="-0.034277" id="linearGradient3181" xlink:href="#linearGradient3012"/>
  <linearGradient y2="0.42103" x2="-0.14605" y1="0.405254" x1="1.167212" id="linearGradient3183" xlink:href="#linearGradient650"/>
  <linearGradient y2="-0.005344" x2="1.00482" y1="-0.005344" x1="-0.004839" id="linearGradient3185" xlink:href="#linearGradient3012"/>
  <linearGradient y2="0.634453" x2="0.263107" y1="0.531658" x1="0.404532" id="linearGradient3187" xlink:href="#linearGradient3061"/>
  <radialGradient gradientTransform="matrix(0.781433, 0, 0, 0.781433, -10.4014, 54.1891)" gradientUnits="userSpaceOnUse" r="27.403753" fy="392.14377" fx="53.522011" cy="392.14377" cx="53.522011" id="radialGradient3189" xlink:href="#linearGradient3061"/>
  <linearGradient y2="0.7096" x2="0.509322" y1="1.21613" x1="0.51305" id="linearGradient3191" xlink:href="#linearGradient3042"/>
  <linearGradient y2="-0.00652" x2="0.673346" y1="1.163725" x1="0.684529" id="linearGradient3193" xlink:href="#linearGradient3042"/>
  <linearGradient y2="1.088678" x2="0.326661" y1="0.134647" x1="0.800093" id="linearGradient3195" xlink:href="#linearGradient3012"/>
  <linearGradient y2="-0.007442" x2="1.001395" y1="-0.007442" x1="-0.001387" id="linearGradient3197" xlink:href="#linearGradient3012"/>
  <linearGradient y2="0.499995" x2="0.494407" y1="1.475847" x1="0.501871" id="linearGradient3199" xlink:href="#linearGradient3042"/>
  <linearGradient y2="-0.013612" x2="1.001959" y1="-0.013612" x1="-0.001949" id="linearGradient3201" xlink:href="#linearGradient3042"/>
  <linearGradient y2="0.689506" x2="-0.110736" y1="0.713193" x1="1.357859" id="linearGradient3203" xlink:href="#linearGradient650"/>
  <linearGradient y2="-0.005325" x2="1.004831" y1="-0.005325" x1="-0.004827" id="linearGradient3205" xlink:href="#linearGradient3012"/>
  <linearGradient y2="1.346395" x2="-0.436946" y1="0.064956" x1="0.941973" id="linearGradient3223" xlink:href="#linearGradient3061"/>
  <linearGradient y2="0.587363" x2="0.636062" y1="1.513139" x1="0.531685" id="linearGradient3227" xlink:href="#linearGradient3042"/>
  <linearGradient y2="-0.006531" x2="1.001382" y1="-0.006531" x1="-0.001384" id="linearGradient3256" xlink:href="#linearGradient3042"/>
  <linearGradient y2="0.439108" x2="0.647247" y1="1.77891" x1="0.44222" id="linearGradient3259" xlink:href="#linearGradient3042"/>
  <linearGradient y2="-0.007493" x2="1.001385" y1="-0.007493" x1="-0.001384" id="linearGradient3273" xlink:href="#linearGradient3012"/>
  <linearGradient y2="0.413772" x2="1.26394" y1="0.327538" x1="-1.909381" id="linearGradient3275" xlink:href="#linearGradient650"/>
  <linearGradient y2="-0.001722" x2="1.005373" y1="-0.001722" x1="-0.005388" id="linearGradient3277" xlink:href="#linearGradient3042"/>
  <linearGradient y2="1.605446" x2="-0.146066" y1="0.059474" x1="-0.336385" id="linearGradient3279" xlink:href="#linearGradient650"/>
  <linearGradient y2="-0.012617" x2="1.015846" y1="-0.012617" x1="-0.015851" id="linearGradient3281" xlink:href="#linearGradient3042"/>
  <linearGradient y2="0.916961" x2="0.820459" y1="0.043034" x1="-1.965221" id="linearGradient3283" xlink:href="#linearGradient650"/>
  <linearGradient y2="-0.013086" x2="1.043313" y1="-0.013086" x1="-0.043097" id="linearGradient3285" xlink:href="#linearGradient3012"/>
  <linearGradient y2="0.8752" x2="-0.131629" y1="0.028994" x1="-0.189574" id="linearGradient3287" xlink:href="#linearGradient650"/>
  <linearGradient y2="-0.010925" x2="1.015643" y1="-0.010925" x1="-0.015743" id="linearGradient3289" xlink:href="#linearGradient3042"/>
  <linearGradient y2="0.785572" x2="1.095899" y1="0.019598" x1="-0.486224" id="linearGradient3291" xlink:href="#linearGradient650"/>
  <linearGradient y2="-0.021422" x2="1.625303" y1="-0.021422" x1="0.937675" id="linearGradient3293" xlink:href="#linearGradient3042"/>
  <linearGradient y2="0.23848" x2="0.906512" y1="0.175078" x1="-0.888089" id="linearGradient3295" xlink:href="#linearGradient3042"/>
  <linearGradient y2="-0.007204" x2="1.013881" y1="-0.007204" x1="-0.013796" id="linearGradient3297" xlink:href="#linearGradient3042"/>
  <linearGradient y2="1.200527" x2="0.675776" y1="0.061218" x1="-1.745685" id="linearGradient3299" xlink:href="#linearGradient650"/>
  <linearGradient y2="-0.008533" x2="1.026184" y1="-0.008533" x1="-0.026241" id="linearGradient3301" xlink:href="#linearGradient3042"/>
  <linearGradient y2="1.014127" x2="2.463469" y1="0.341838" x1="-0.207777" id="linearGradient3303" xlink:href="#linearGradient650"/>
  <linearGradient y2="-0.00617" x2="1.020991" y1="-0.00617" x1="-0.020799" id="linearGradient3305" xlink:href="#linearGradient3012"/>
  <linearGradient y2="0.445043" x2="19.616823" y1="0.366541" x1="-8.387284" id="linearGradient3307" xlink:href="#linearGradient650"/>
  <linearGradient y2="-0.002417" x2="1.042672" y1="-0.002417" x1="-0.043052" id="linearGradient3309" xlink:href="#linearGradient3042"/>
  <linearGradient y2="0.158876" x2="24.066846" y1="0.067288" x1="-6.786873" id="linearGradient3311" xlink:href="#linearGradient650"/>
  <linearGradient y2="-0.007647" x2="1.018032" y1="-0.007647" x1="-0.017947" id="linearGradient3313" xlink:href="#linearGradient3042"/>
  <linearGradient y2="-0.020102" x2="1.016596" y1="-0.020102" x1="-0.01662" id="linearGradient3315" xlink:href="#linearGradient3012"/>
  <linearGradient y2="0.452227" x2="3.040794" y1="0.444272" x1="-2.847999" id="linearGradient3320" xlink:href="#linearGradient650"/>
  <linearGradient y2="-0.009207" x2="1.059517" y1="-0.009207" x1="-0.096229" id="linearGradient3324" xlink:href="#linearGradient3042"/>
  <linearGradient y2="-0.001861" x2="1.007235" y1="-0.001861" x1="-0.007199" id="linearGradient3326" xlink:href="#linearGradient3012"/>
  <linearGradient y2="1.330878" x2="0.995456" y1="1.330878" x1="-0.045009" id="linearGradient3328" xlink:href="#linearGradient3042"/>
  <linearGradient y2="1.330878" x2="0.995456" y1="1.330878" x1="-0.045009" id="linearGradient3330" xlink:href="#linearGradient3042"/>
  <linearGradient y2="-0.005405" x2="1.020205" y1="-0.005405" x1="-0.020258" id="linearGradient3332" xlink:href="#linearGradient3042"/>
  <linearGradient y2="-0.005405" x2="1.020205" y1="-0.005405" x1="-0.020258" id="linearGradient3334" xlink:href="#linearGradient3042"/>
  <linearGradient y2="-0.001567" x2="1.013989" y1="-0.001567" x1="-0.013955" id="linearGradient3336" xlink:href="#linearGradient3012"/>
  <linearGradient y2="0.750641" x2="1.161137" y1="0.037882" x1="-0.273241" id="linearGradient3338" xlink:href="#linearGradient650"/>
  <linearGradient y2="-0.00128" x2="1.004253" y1="-0.00128" x1="-0.004295" id="linearGradient3340" xlink:href="#linearGradient3012"/>
  <linearGradient y2="0.402281" x2="-0.028681" y1="0.421826" x1="0.977735" id="linearGradient3342" xlink:href="#linearGradient3012"/>
  <linearGradient y2="0.804175" x2="0.494407" y1="1.10834" x1="0.51307" id="linearGradient3344" xlink:href="#linearGradient3042"/>
  <linearGradient y2="-0.006936" x2="1.002035" y1="-0.006936" x1="-0.002024" id="linearGradient3346" xlink:href="#linearGradient3042"/>
  <linearGradient y2="1.095275" x2="0.834097" y1="0.282194" x1="0.367454" id="linearGradient3348" xlink:href="#linearGradient3012"/>
  <linearGradient y2="-0.0082" x2="1.002084" y1="-0.0082" x1="-0.002108" id="linearGradient3350" xlink:href="#linearGradient3012"/>
  <linearGradient y2="0.233497" x2="1.544947" y1="0.970274" x1="-0.399183" id="linearGradient3352" xlink:href="#linearGradient3012"/>
  <linearGradient y2="-0.001644" x2="1.010311" y1="-0.001644" x1="-0.010358" id="linearGradient3354" xlink:href="#linearGradient3012"/>
  <linearGradient y2="1.245625" x2="0.911257" y1="0.025481" x1="0.034964" id="linearGradient3356" xlink:href="#linearGradient3258"/>
  <linearGradient y2="1.202259" x2="0.359354" y1="0.068022" x1="1.108108" id="linearGradient3358" xlink:href="#linearGradient3012"/>
  <linearGradient y2="0.206517" x2="0.965039" y1="-1.117916" x1="0.019533" id="linearGradient3360" xlink:href="#linearGradient3258"/>
  <linearGradient y2="0.159442" x2="0.369544" y1="-1.071741" x1="1.177436" id="linearGradient3362" xlink:href="#linearGradient3012"/>
  <linearGradient y2="0.168949" x2="0.726294" y1="0.957178" x1="0.071493" id="linearGradient3364" xlink:href="#linearGradient3178"/>
  <linearGradient y2="-0.004461" x2="1.005546" y1="-0.004461" x1="-0.005543" id="linearGradient3366" xlink:href="#linearGradient3042"/>
  <linearGradient y2="0.675498" x2="2.419015" y1="0.579784" x1="-0.642041" id="linearGradient3368" xlink:href="#linearGradient3042"/>
  <linearGradient y2="-0.21643" x2="0.682355" y1="1.493381" x1="-2.47419" id="linearGradient3370" xlink:href="#linearGradient3042"/>
  <linearGradient y2="0.466588" x2="1.791762" y1="1.851824" x1="0.113039" id="linearGradient3372" xlink:href="#linearGradient3042"/>
  <linearGradient y2="0.372132" x2="0.933575" y1="2.179422" x1="-1.261867" id="linearGradient3374" xlink:href="#linearGradient3042"/>
  <linearGradient y2="-0.508631" x2="1.791762" y1="0.876771" x1="0.113039" id="linearGradient3376" xlink:href="#linearGradient3042"/>
  <linearGradient y2="-0.653749" x2="0.933575" y1="1.153541" x1="-1.261867" id="linearGradient3378" xlink:href="#linearGradient3042"/>
  <linearGradient y2="-1.534304" x2="3.194416" y1="0.344443" x1="-0.112523" id="linearGradient3380" xlink:href="#linearGradient3042"/>
  <linearGradient y2="0.573487" x2="2.470398" y1="0.785785" x1="-0.145098" id="linearGradient3382" xlink:href="#linearGradient650"/>
  <linearGradient y2="-0.022692" x2="1.01669" y1="-0.022692" x1="-0.016664" id="linearGradient3384" xlink:href="#linearGradient3012"/>
  <linearGradient y2="0.787833" x2="2.373991" y1="-0.918556" x1="-0.860124" id="linearGradient3386" xlink:href="#linearGradient3042"/>
  <linearGradient y2="-0.060229" x2="2.22774" y1="1.003464" x1="-0.986709" id="linearGradient3388" xlink:href="#linearGradient650"/>
  <linearGradient y2="-0.019631" x2="1.038367" y1="-0.019631" x1="-0.038492" id="linearGradient3390" xlink:href="#linearGradient3012"/>
  <linearGradient y2="-0.080313" x2="3.208648" y1="1.798434" x1="-0.098622" id="linearGradient3392" xlink:href="#linearGradient3042"/>
  <linearGradient y2="-0.6794" x2="2.378061" y1="-2.38579" x1="-0.856052" id="linearGradient3394" xlink:href="#linearGradient3042"/>
  <linearGradient y2="-0.0005" x2="0.94282" y1="0.976685" x1="0.071687" id="linearGradient3396" xlink:href="#linearGradient3178"/>
  <linearGradient y2="-0.008445" x2="1.015413" y1="-0.008445" x1="-0.015428" id="linearGradient3398" xlink:href="#linearGradient3012"/>
  <linearGradient y2="0.746089" x2="0.872247" y1="0.277704" x1="-0.346143" id="linearGradient3400" xlink:href="#linearGradient650"/>
  <linearGradient y2="-0.008091" x2="1.007625" y1="-0.008091" x1="-0.0077" id="linearGradient3402" xlink:href="#linearGradient3012"/>
  <linearGradient y2="1.599287" x2="1.377159" y1="0.45075" x1="0.509756" id="linearGradient3404" xlink:href="#linearGradient650"/>
  <linearGradient y2="0.492158" x2="12.673477" y1="0.523518" x1="-8.984742" id="linearGradient3406" xlink:href="#linearGradient650"/>
  <linearGradient y2="0.499998" x2="1.022851" y1="0.499998" x1="-0.022717" id="linearGradient3408" xlink:href="#linearGradient3225"/>
  <linearGradient y2="0.458114" x2="0.246712" y1="0.583903" x1="0.501861" id="linearGradient3410" xlink:href="#linearGradient3258"/>
  <linearGradient y2="-0.017033" x2="1.004641" y1="-0.017033" x1="-0.00468" id="linearGradient3412" xlink:href="#linearGradient3042"/>
  <linearGradient y2="0.264932" x2="3.621696" y1="0.390303" x1="-0.406307" id="linearGradient3414" xlink:href="#linearGradient650"/>
  <linearGradient y2="-0.001481" x2="1.003494" y1="-0.001481" x1="-0.003507" id="linearGradient3416" xlink:href="#linearGradient3042"/>
  <linearGradient y2="0.180165" x2="2.149814" y1="0.870339" x1="0.024037" id="linearGradient3418" xlink:href="#linearGradient650"/>
  <linearGradient y2="-0.013419" x2="1.006034" y1="-0.013419" x1="-0.006062" id="linearGradient3420" xlink:href="#linearGradient3012"/>
  <linearGradient y2="0.516057" x2="-0.112756" y1="0.548143" x1="1.469724" id="linearGradient3422" xlink:href="#linearGradient3012"/>
  <linearGradient y2="-0.01341" x2="1.016224" y1="-0.01341" x1="-0.016259" id="linearGradient3424" xlink:href="#linearGradient3012"/>
  <linearGradient y2="0.554698" x2="0.140607" y1="0.523456" x1="1.789399" id="linearGradient3426" xlink:href="#linearGradient650"/>
  <linearGradient y2="0.476595" x2="-0.064144" y1="0.45314" x1="2.159996" id="linearGradient3428" xlink:href="#linearGradient650"/>
  <linearGradient y2="0.342177" x2="-4.722272" y1="0.4132" x1="1.778048" id="linearGradient3430" xlink:href="#linearGradient650"/>
  <linearGradient y2="-0.005048" x2="1.047678" y1="-0.005048" x1="-0.047879" id="linearGradient3432" xlink:href="#linearGradient3042"/>
  <linearGradient y2="0.022964" x2="1.774948" y1="-0.031552" x1="0.024994" id="linearGradient3434" xlink:href="#linearGradient650"/>
  <linearGradient y2="-0.017926" x2="1.005116" y1="-0.017926" x1="-0.005055" id="linearGradient3436" xlink:href="#linearGradient3012"/>
  <linearGradient y2="0.957" x2="1.031386" y1="0.011063" x1="0.148025" id="linearGradient3438" xlink:href="#linearGradient3109"/>
  <linearGradient y2="0.413799" x2="0.691282" y1="0.17083" x1="0.43625" spreadMethod="reflect" id="linearGradient3440" xlink:href="#linearGradient3109"/>
  <linearGradient y2="0.936482" x2="0.931979" y1="0.037487" x1="0.103542" id="linearGradient3442" xlink:href="#linearGradient3109"/>
  <linearGradient y2="0.425376" x2="-0.31989" y1="0.962695" x1="-0.373198" spreadMethod="reflect" id="linearGradient3444" xlink:href="#linearGradient3225"/>
  <linearGradient y2="0.516088" x2="3.132406" y1="0.395363" x1="-0.273798" id="linearGradient3446" xlink:href="#linearGradient650"/>
  <linearGradient y2="-0.015106" x2="1.017263" y1="-0.015106" x1="-0.017418" id="linearGradient3448" xlink:href="#linearGradient3042"/>
  <linearGradient y2="0.425537" x2="1.533447" y1="0.028638" x1="-0.369122" id="linearGradient3450" xlink:href="#linearGradient650"/>
  <linearGradient y2="-0.029272" x2="1.025613" y1="-0.029272" x1="-0.02584" id="linearGradient3452" xlink:href="#linearGradient3012"/>
  <linearGradient y2="2.109952" x2="0.706321" y1="-1.720819" x1="0.28623" id="linearGradient3454" xlink:href="#linearGradient650"/>
  <linearGradient y2="1.178483" x2="1.01114" y1="0.071986" x1="0.375688" id="linearGradient3456" xlink:href="#linearGradient650"/>
  <linearGradient y2="0.608746" x2="0.650601" y1="0.359071" x1="0.480163" spreadMethod="reflect" id="linearGradient3460" xlink:href="#linearGradient3012"/>
  <linearGradient y2="0.500007" x2="1.019895" y1="0.500007" x1="-0.0198" id="linearGradient3462" xlink:href="#linearGradient3225"/>
  <linearGradient y2="-4.489714" x2="2.980565" y1="-4.41109" x1="0.244432" id="linearGradient3464" xlink:href="#linearGradient650"/>
  <linearGradient y2="-9.049966" x2="1.013265" y1="-9.049966" x1="0.004675" id="linearGradient3466" xlink:href="#linearGradient3042"/>
  <linearGradient y2="4.551478" x2="2.971818" y1="4.630203" x1="0.235434" id="linearGradient3468" xlink:href="#linearGradient650"/>
  <linearGradient y2="-0.014674" x2="1.004337" y1="-0.014674" x1="-0.004345" id="linearGradient3470" xlink:href="#linearGradient3042"/>
  <linearGradient y2="0.413752" x2="-0.093724" y1="0.437273" x1="0.166939" id="linearGradient3472" xlink:href="#linearGradient3258"/>
  <linearGradient y2="-0.001787" x2="1.006827" y1="-0.001787" x1="-0.006839" id="linearGradient3474" xlink:href="#linearGradient3042"/>
  <linearGradient y2="-0.060192" x2="2.22778" y1="1.003502" x1="-0.986674" id="linearGradient3508" xlink:href="#linearGradient650"/>
  <linearGradient y2="-0.019594" x2="1.038407" y1="-0.019594" x1="-0.038451" id="linearGradient3510" xlink:href="#linearGradient3012"/>
  <linearGradient y2="0.47384" x2="-0.37018" y1="0.47384" x1="1.25214" id="linearGradient3526" xlink:href="#linearGradient3012"/>
  <linearGradient y2="-2.876389" x2="2.1779" y1="-2.702292" x1="-3.060582" id="linearGradient3528" xlink:href="#linearGradient650"/>
  <linearGradient y2="-0.655594" x2="1.376728" y1="-0.655594" x1="0.638407" id="linearGradient3530" xlink:href="#linearGradient3012"/>
  <linearGradient y2="-2.876403" x2="2.177892" y1="-2.702306" x1="-3.060564" id="linearGradient3532" xlink:href="#linearGradient650"/>
  <linearGradient y2="-0.655614" x2="1.376725" y1="-0.655614" x1="0.6384" id="linearGradient3534" xlink:href="#linearGradient3012"/>
  <linearGradient y2="0.413071" x2="1.587711" y1="0.225895" x1="-1.279216" id="linearGradient3536" xlink:href="#linearGradient650"/>
  <linearGradient y2="-0.014763" x2="1.029387" y1="-0.014763" x1="-0.029539" id="linearGradient3538" xlink:href="#linearGradient3012"/>
  <radialGradient gradientUnits="userSpaceOnUse" r="16.650444" fy="284.3215" fx="1212.4785" cy="284.3215" cx="1212.4785" gradientTransform="matrix(0.156395, 0.332736, -0.498917, 0.51131, 542.243, -242.285)" id="radialGradient3540" xlink:href="#linearGradient3034"/>
  <linearGradient y2="0.953165" x2="1.961909" y1="0.132804" x1="-0.405018" id="linearGradient3542" xlink:href="#linearGradient3034"/>
  <linearGradient y2="-2.876389" x2="2.1779" y1="-2.702292" x1="-3.060582" id="linearGradient3544" xlink:href="#linearGradient650"/>
  <linearGradient y2="-0.655594" x2="1.376728" y1="-0.655594" x1="0.638407" id="linearGradient3546" xlink:href="#linearGradient3012"/>
  <linearGradient y2="-2.876403" x2="2.177892" y1="-2.702306" x1="-3.060564" id="linearGradient3548" xlink:href="#linearGradient650"/>
  <linearGradient y2="-0.655614" x2="1.376725" y1="-0.655614" x1="0.6384" id="linearGradient3550" xlink:href="#linearGradient3012"/>
  <linearGradient y2="0.413071" x2="1.587711" y1="0.225895" x1="-1.279216" id="linearGradient3552" xlink:href="#linearGradient650"/>
  <linearGradient y2="-0.014763" x2="1.029387" y1="-0.014763" x1="-0.029539" id="linearGradient3554" xlink:href="#linearGradient3012"/>
  <radialGradient gradientUnits="userSpaceOnUse" r="16.650444" fy="284.3215" fx="1212.4785" cy="284.3215" cx="1212.4785" gradientTransform="matrix(0.414715, 0.264649, -0.396825, 0.942664, 308.487, -185.382)" id="radialGradient3556" xlink:href="#linearGradient3034"/>
  <linearGradient y2="0.953165" x2="1.961909" y1="0.132804" x1="-0.405018" id="linearGradient3558" xlink:href="#linearGradient3034"/>
  <linearGradient y2="1.147304" x2="0.539195" y1="0.143983" x1="0.501868" id="linearGradient3560" xlink:href="#linearGradient3012"/>
  <linearGradient y2="-0.017757" x2="1.001999" y1="-0.017757" x1="-0.001988" id="linearGradient3562" xlink:href="#linearGradient3012"/>
  <linearGradient y2="1.51234" x2="0.448682" y1="-0.901555" x1="0.448672" id="linearGradient3564" xlink:href="#linearGradient3042"/>
  <linearGradient y2="1.045134" x2="0.520899" y1="-0.070965" x1="0.513291" id="linearGradient3566" xlink:href="#linearGradient3012"/>
  <linearGradient y2="-1.47962" x2="0.524285" y1="0.847354" x1="0.513078" id="linearGradient3568" xlink:href="#linearGradient650"/>
  <linearGradient y2="-2.035312" x2="0.542964" y1="1.125205" x1="0.528021" id="linearGradient3570" xlink:href="#linearGradient3012"/>
  <linearGradient y2="-0.650709" x2="0.569197" y1="1.913907" x1="0.486915" id="linearGradient3572" xlink:href="#linearGradient650"/>
  <linearGradient y2="-0.025998" x2="1.003053" y1="-0.025998" x1="-0.003043" id="linearGradient3574" xlink:href="#linearGradient3012"/>
  <linearGradient y2="-3.751154" x2="0.513068" y1="1.701597" x1="0.516794" id="linearGradient3576" xlink:href="#linearGradient3042"/>
  <linearGradient y2="1.147079" x2="0.542944" y1="0.222885" x1="0.539206" id="linearGradient3578" xlink:href="#linearGradient3042"/>
  <linearGradient y2="0.349288" x2="1.10624" y1="0.436546" x1="-0.184207" id="linearGradient3580" xlink:href="#linearGradient650"/>
  <linearGradient y2="-0.007676" x2="1.006973" y1="-0.007676" x1="-0.006948" id="linearGradient3582" xlink:href="#linearGradient3042"/>
  <linearGradient y2="-0.145557" x2="1.351952" y1="0.635438" x1="0.293609" id="linearGradient3584" xlink:href="#linearGradient650"/>
  <linearGradient y2="-0.010072" x2="1.013292" y1="-0.010072" x1="-0.013272" id="linearGradient3586" xlink:href="#linearGradient3012"/>
  <linearGradient y2="0.746112" x2="0.872247" y1="0.277764" x1="-0.346143" id="linearGradient3588" xlink:href="#linearGradient650"/>
  <linearGradient y2="-0.008008" x2="1.007624" y1="-0.008008" x1="-0.0077" id="linearGradient3590" xlink:href="#linearGradient3012"/>
  <linearGradient y2="0.398069" x2="4.262166" y1="0.398069" x1="-7.452786" id="linearGradient3592" xlink:href="#linearGradient650"/>
  <linearGradient y2="-0.001793" x2="1.023885" y1="-0.001793" x1="-0.023794" id="linearGradient3594" xlink:href="#linearGradient3012"/>
  <linearGradient y2="0.319672" x2="13.596352" y1="0.311831" x1="-0.733171" id="linearGradient3596" xlink:href="#linearGradient650"/>
  <linearGradient y2="-0.001785" x2="1.028656" y1="-0.001785" x1="-0.028441" id="linearGradient3598" xlink:href="#linearGradient3012"/>
  <linearGradient y2="0.574633" x2="-0.319874" y1="0.037314" x1="-0.37318" spreadMethod="reflect" id="svg_1" xlink:href="#linearGradient3225"/>
  <linearGradient y2="0.657829" x2="-4.722235" y1="0.586806" x1="1.778088" id="svg_2" xlink:href="#linearGradient650"/>
  <linearGradient y2="1.005054" x2="1.047714" y1="1.005054" x1="-0.047847" id="svg_3" xlink:href="#linearGradient3042"/>
  <linearGradient y2="1.000512" x2="0.942837" y1="0.023327" x1="0.071702" id="svg_4" xlink:href="#linearGradient3178"/>
  <linearGradient y2="1.008457" x2="1.015428" y1="1.008457" x1="-0.015413" id="svg_5" xlink:href="#linearGradient3012"/>
  <linearGradient y2="1.679419" x2="2.378016" y1="3.385813" x1="-0.85608" id="svg_6" xlink:href="#linearGradient3042"/>
  <linearGradient y2="1.080338" x2="3.208655" y1="-0.798409" x1="-0.098615" id="svg_7" xlink:href="#linearGradient3042"/>
  <linearGradient y2="0.212178" x2="2.373948" y1="1.918572" x1="-0.860147" id="svg_8" xlink:href="#linearGradient3042"/>
  <linearGradient y2="0.426406" x2="2.470382" y1="0.21406" x1="-0.145109" id="svg_9" xlink:href="#linearGradient650"/>
  <linearGradient y2="1.02272" x2="1.016677" y1="1.02272" x1="-0.016676" id="svg_10" xlink:href="#linearGradient3012"/>
  <linearGradient y2="2.534325" x2="3.19442" y1="0.655578" x1="-0.11252" id="svg_11" xlink:href="#linearGradient3042"/>
  <linearGradient y2="1.653765" x2="0.933602" y1="-0.153529" x1="-1.261843" id="svg_12" xlink:href="#linearGradient3042"/>
  <linearGradient y2="1.508645" x2="1.791781" y1="0.123243" x1="0.11306" id="svg_13" xlink:href="#linearGradient3042"/>
  <linearGradient y2="0.627792" x2="0.933598" y1="-1.179238" x1="-1.261845" id="svg_14" xlink:href="#linearGradient3042"/>
  <linearGradient y2="0.533428" x2="1.791779" y1="-0.851806" x1="0.113059" id="svg_15" xlink:href="#linearGradient3042"/>
  <linearGradient y2="0.324512" x2="2.419028" y1="0.420226" x1="-0.642029" id="svg_16" xlink:href="#linearGradient3042"/>
  <linearGradient y2="1.216439" x2="0.682368" y1="-0.493371" x1="-2.474177" id="svg_17" xlink:href="#linearGradient3042"/>
  <linearGradient y2="0.831052" x2="0.726298" y1="0.042822" x1="0.071497" id="svg_18" xlink:href="#linearGradient3178"/>
  <linearGradient y2="1.004462" x2="1.005551" y1="1.004462" x1="-0.005538" id="svg_19" xlink:href="#linearGradient3042"/>
  <linearGradient y2="0.074468" x2="0.869412" y1="0.925527" x1="0.078243" id="svg_20" xlink:href="#linearGradient3178"/>
  <linearGradient y2="0.499998" x2="1.003213" y1="0.499998" x1="-0.003201" id="svg_21" xlink:href="#linearGradient3178"/>
  <linearGradient y2="0.547246" x2="1.777935" y1="0.594482" x1="0.369903" id="svg_22" xlink:href="#linearGradient650"/>
  <linearGradient y2="1.003869" x2="1.002497" y1="1.003869" x1="-0.002511" id="svg_23" xlink:href="#linearGradient3012"/>
  <radialGradient y2="1" y1="1" gradientTransform="matrix(0.781433, 0, 0, -0.781433, -10.7246, 443.291)" gradientUnits="userSpaceOnUse" r="11.724763" fy="392.04758" fx="53.723667" cy="392.04758" cx="53.723667" id="svg_24" xlink:href="#linearGradient3061"/>
  <linearGradient y1="0.713802" x1="0.167969" y2="1" x2="0.246094" id="svg_27">
   <stop offset="0" stop-opacity="0.992188" stop-color="#02027a"/>
   <stop offset="1" stop-opacity="0.996094" stop-color="#ada9e5"/>
  </linearGradient>
  <linearGradient spreadMethod="pad" y1="0.64349" x1="0.03125" y2="0.98724" x2="0.285156" id="svg_28">
   <stop offset="0" stop-opacity="0.988281" stop-color="#bfbff2"/>
   <stop offset="0.394531" stop-opacity="0.996094" stop-color="#e6e6f7"/>
   <stop offset="0.722656" stop-opacity="0.996094" stop-color="#ada9e5"/>
   <stop offset="0.980469" stop-opacity="0.996094" stop-color="#8080d6"/>
  </linearGradient>
 </defs>
 <g>
  <title>Layer 1</title>
  <g transform="matrix(0.960426, 0, 0, 0.960426, 3.09613, -76.898)" id="g4608">
   <path fill="#00007f" fill-rule="evenodd" stroke-width="0.781433" id="path3010" d="m348.353485,385.746887l0,0l0,0l0,0l0,0l0,0l0,0zm-0.323181,-274.514084l0,0l0,0l0,0l0,0l0,0l0,0zm273.152191,-16.174561c72.572205,0.024399 93.286316,67.755951 93.286316,153.345764l0,0l0,0l0,0c0,85.58989 -17.860413,144.002579 -87.206604,152.344986c-27.634888,3.130615 -44.877686,0.735321 -68.798401,1.489502c-34.911194,-0.431 -49.780914,0.754211 -68.566803,-3.713287c-20.341217,-4.179596 -76.231201,2.656982 -191.433899,3.707581c0,-3.200195 0,0 -0.461517,-0.218689c-14.171783,0.558105 -171.532784,-3.655487 -203.890739,-5.026794c0,0 0,0 -2.382896,-1.110596c-73.02997,-2.860199 -78.601421,-69.132019 -80.751691,-72.703705c-14.0255,-43.074707 -13.86936,-56.091309 -13.86936,-74.156906c0,-18.065491 -0.15614,-31.968903 13.76315,-74.904694c2.04406,-3.433105 7.504679,-70.148201 81.615301,-73.120407c33.438545,-1.483154 191.02124,-6.583557 205.922455,-6.079361c115.932281,0.996605 172.154785,7.057365 192.070984,2.736305c18.360901,-4.608902 33.230682,-3.423698 68.141937,-3.854698c23.920654,0.754196 35.732056,-1.752007 62.561768,1.264999l0,0z"/>
   <path fill="url(#linearGradient3001)" fill-rule="evenodd" stroke="url(#linearGradient3003)" stroke-width="0.781433" id="path3342" d="m549.441589,150.775299l-61.000977,-21.558502l0.931976,-9.765594l15.971924,1.926094l49.241791,18.373802l-4.899719,0.244995l-0.244995,10.779205l0,0l0,0l0,0z"/>
   <path fill="url(#linearGradient3005)" fill-rule="evenodd" stroke="url(#linearGradient3007)" stroke-width="0.781433" id="path3343" d="m321.220612,119.616203c-3.292297,0 -16.593719,-14.367004 -18.43811,-16.819901c-2.627106,-3.870667 -4.571503,-4.571564 -4.571503,-7.771759c115.202698,1.050598 174.861206,7.222054 194.518707,3.200096c8.91449,3.428658 5.485809,7.543159 3.657196,24.457863c-2.742798,2.378098 -19.336487,-0.2286 -22.628998,-0.2286c-53.944092,0 -93.259399,-2.514404 -147.203613,-2.514404l-5.333679,-0.323296l0,0z"/>
   <path fill="url(#linearGradient3009)" fill-rule="evenodd" stroke="url(#linearGradient3013)" stroke-width="0.781433" id="path3344" d="m321.382202,119.616203c-3.292297,0 -16.545105,-14.540207 -18.599701,-16.819901c-3.112,-3.224159 165.261108,1.736099 194.976013,1.371201c1.599884,4.343094 0.457001,1.600296 -1.371613,18.514999c-2.742798,2.378098 -19.336487,-0.2286 -22.628998,-0.2286c-53.944092,0 -93.259399,-2.514404 -147.203613,-2.514404l0,0l-5.172089,-0.323296l0,0z"/>
   <path fill="url(#linearGradient3015)" fill-rule="evenodd" stroke="url(#linearGradient3017)" stroke-width="0.781433" id="path3345" d="m466.4133,107.307999c-1.4328,0 -9.051208,-0.830101 -9.051208,-2.262695l0,-0.970001c0,-1.432602 1.476501,-2.262802 2.90921,-2.262802l29.093201,0.323303c1.432709,0 2.90921,0.506897 2.90921,1.939499l0,0.970001c0,1.432594 -3.416016,2.262695 -4.848602,2.262695l-21.01181,0l0,0z"/>
   <path fill="url(#linearGradient3019)" fill-rule="evenodd" stroke="url(#linearGradient3021)" stroke-width="0.781433" id="path3346" d="m360.562805,127.250801c-1.970001,0 -33.800507,-5.126198 -31.830505,-5.126198c40.515106,0 117.152802,-1.334801 156.455292,0.701996c2.936798,0.127998 3.675201,3.576004 3.2323,5.4953c-1.939392,8.727997 -5.472687,7.934601 -7.434692,7.758301c-39.545288,-3.879105 -75.203705,11.724396 -110.365112,-4.257797l-10.057281,-4.571602l0,0z"/>
   <path fill="url(#linearGradient3023)" fill-rule="evenodd" stroke="url(#linearGradient3025)" stroke-width="0.781433" id="path3347" d="m496.146912,118.9394c26.830017,0.754303 55.922668,-2.047203 82.429382,14.546394c22.358276,-9.589897 70.253784,9.266602 103.926025,17.7789c-2.155029,-8.404587 -11.260132,-15.677795 -7.9198,-24.243996c1.077454,-0.700302 1.670105,-2.855301 5.172058,-0.6465c-6.249451,-11.6371 -31.571167,-20.041702 -49.781006,-29.092758c-26.829895,-3.016998 -47.841248,-1.5084 -71.761963,-2.262604c-34.911194,0.431 -49.781006,-0.754196 -67.883209,3.555801c5.818604,1.616165 9.374298,5.171959 5.818512,20.364761l0,0l0,0l0,0z"/>
   <path fill="url(#linearGradient3027)" fill-rule="evenodd" stroke="url(#linearGradient3029)" stroke-width="0.781433" id="path3348" d="m496.146912,118.9394c26.830017,0.754303 55.922668,-2.047203 82.429382,14.546394c22.358276,-9.589897 70.253784,9.266602 103.926025,17.7789c-2.155029,-8.404587 -6.411438,-13.738297 -11.475647,-19.718491c-23.166443,-8.781601 -85.015259,-24.136002 -108.935974,-24.890305c-24.405518,-0.2155 -56.650208,-2.4244 -65.337585,-2.990097c1.436188,2.872498 1.171692,7.6772 -0.606201,15.273598l0,0l0,0l0,0l0,0l0,0l0,0l0,0l0,0z"/>
   <path fill="url(#linearGradient3035)" fill-rule="evenodd" stroke="url(#linearGradient3037)" stroke-width="0.781433" id="path3349" d="m371.077209,130.908005c-1.96991,0 -12.314209,-9.697807 -10.344299,-9.697807c40.515198,0 85.152191,-0.420395 124.454681,1.616402c2.936798,0.127998 3.675201,3.576004 3.2323,5.4953c-1.939392,8.727997 -5.472687,7.934601 -7.434692,7.758301c-39.545288,-3.879105 -69.392914,-5.172195 -109.90799,-5.172195l0,0z"/>
   <path fill="url(#linearGradient3043)" fill-rule="evenodd" stroke="url(#linearGradient3048)" stroke-width="0.781433" id="path3350" d="m493.585297,139.506104l0,-4.164703l13.718994,0l-0.244904,-5.8797l-17.39389,0c0,0 -1.959686,9.799393 3.9198,10.044403z"/>
   <path fill="url(#linearGradient3050)" fill-rule="evenodd" stroke="url(#linearGradient3052)" stroke-width="0.781433" id="path3351" d="m489.910492,129.706696l4.654694,0.24501l0.245026,-2.204803l10.779297,0l1.224884,-4.899704l-2.44989,-1.9599l-6.369507,0l-0.48999,3.429802l-7.839508,0.489998l0.244995,4.899597z"/>
   <path fill="url(#linearGradient3057)" fill-rule="evenodd" stroke="url(#linearGradient3059)" stroke-width="0.781433" id="path3352" d="m501.151306,119.620102l54.048218,20.441299l29.795776,2.425293l-13.165527,-10.047501l-36.378662,-11.086792l-34.299805,-1.7323z"/>
   <path fill="url(#linearGradient3062)" fill-rule="evenodd" stroke="url(#linearGradient3107)" stroke-width="0.781433" id="path3353" d="m306.896088,127.709503l-3.657196,-3.885704l17.371704,-4.343002l72.458618,18.514702l-2.971405,8.000107c-27.276703,-10.209702 -55.010712,-13.790802 -83.201721,-18.286102l0,0z"/>
   <path fill="url(#linearGradient3110)" fill-rule="evenodd" stroke="url(#linearGradient3114)" stroke-width="0.781433" id="path3354" d="m326.554291,119.939499c-3.292297,0 20.569519,-3.4347 33.601013,-3.428596c4.480499,0.080696 101.716705,0.364601 136.231689,2.2855c0.685699,0.914398 0.457001,2.971802 -0.000092,3.886101c-2.742798,2.378098 -19.336487,-0.2286 -22.628998,-0.2286c-53.944092,0 -93.259399,-2.514404 -147.203613,-2.514404l0,0l0,0l0,0z"/>
   <path fill="url(#linearGradient3116)" fill-rule="evenodd" stroke="url(#linearGradient3118)" stroke-width="0.781433" id="path3355" d="m321.109406,119.430298c16.270599,-1.670197 24.979004,-1.425499 26.992004,-7.919899c8.40918,-28.173309 8.512482,-31.35585 29.093079,-31.03257l-12.606995,35.23497c-3.124786,-0.107697 -6.572906,0.107704 -7.434906,3.555801l12.607025,11.960495l-48.650208,-11.798798l0,0z"/>
   <path fill="url(#linearGradient3120)" fill-rule="evenodd" stroke="url(#linearGradient3122)" stroke-width="0.781433" id="path3356" d="m348.10141,111.510399c8.40918,-28.173309 8.512482,-31.35585 29.093079,-31.03257l-12.606995,35.23497c-3.124786,-0.107697 -6.572906,0.107704 -7.434906,3.555801c0,0 -11.064178,-1.263802 -9.051178,-7.758202l0,0z"/>
   <path fill="url(#linearGradient3124)" fill-rule="evenodd" stroke="url(#linearGradient3129)" stroke-width="0.781433" id="path2475" d="m549.754272,346.732208l-61.000977,21.558594l0.931915,9.765594l15.971893,-1.926086l49.241821,-18.37381l-4.899719,-0.244995l-0.244934,-10.779297l0,0l0,0l0,0z"/>
   <rect fill="url(#linearGradient3135)" fill-rule="evenodd" y="214.73972" x="393.79855" width="157.33229" id="rect3256" height="72.920883"/>
   <path fill="url(#linearGradient3149)" fill-rule="evenodd" stroke="url(#linearGradient3151)" stroke-width="0.781433" id="path2749" d="m399.895813,232.141495l38.707397,2.694809c4.164795,-0.735107 -2.939697,-2.939911 18.618774,-2.694901c2.939819,0 32.337921,-1.224899 38.462524,-1.46991c18.292175,-2.449799 31.929688,-8.819397 49.731812,-10.289291c1.14325,-25.233398 1.551453,-45.812103 4.164673,-71.290405l-41.89209,-15.43399l-114.162811,-0.24501l8.819519,10.534302l-2.449799,88.194397l0,0z"/>
   <path fill="url(#linearGradient3153)" fill-rule="evenodd" stroke="url(#linearGradient3155)" stroke-width="0.781433" id="path2751" d="m399.893005,229.442703c0,0 50.466492,1.9599 61.245697,1.469803c10.779205,-0.490005 57.325897,-5.389709 59.285675,-28.908005c1.9599,-23.518204 1.46991,-33.317596 1.46991,-33.317596c0.980042,-18.618607 -31.847687,-28.907898 -50.466278,-28.417908c-18.618805,0.489899 -9.799316,10.779205 -9.799316,10.779205l-61.735687,78.394501l0,0z"/>
   <path fill="url(#linearGradient3157)" fill-rule="evenodd" stroke="url(#linearGradient3159)" stroke-width="0.781433" id="path611" d="m251.889603,247.746902c0.457001,19.842484 1.270691,104.972183 51.657394,126.000992c-25.447906,9.600098 -176.153595,1.828613 -264.230488,-31.085999c-15.899469,-28.342987 -21.028599,-73.701111 -21.25717,-93.857803c-0.22858,-20.156693 4.90056,-65.514786 20.800032,-93.857788c88.076931,-32.914604 238.782627,-40.686104 264.230534,-31.086006c-50.386703,21.028801 -51.200302,106.158501 -51.200302,123.886604l0,0z"/>
   <path fill="url(#linearGradient3161)" fill-rule="evenodd" stroke="url(#linearGradient3163)" stroke-width="0.781433" id="path618" d="m18.05934,248.8423c-0.22858,20.156693 4.90056,65.514786 20.800032,93.857895c-5.666241,0.265991 -24.021152,-13.29718 -27.989171,-19.664795c-13.85925,-42.686707 -13.70312,-56.700897 -13.70312,-74.428802m20.89226,0.197495c-0.22858,-20.156799 4.90056,-65.514893 20.800032,-93.857895c-5.666241,-0.266098 -24.021152,13.297104 -27.989171,19.664703c-13.85925,42.686707 -13.70312,56.700897 -13.70312,74.428802l0,0"/>
   <path fill="url(#linearGradient3165)" fill-rule="evenodd" stroke="url(#linearGradient3167)" stroke-width="0.781433" id="path619" d="m251.889603,247.746902c0.457001,19.842484 1.270691,104.972183 51.657394,126.000992c1.066711,0.914307 7.620514,-2.742798 3.201996,-4.571198c-46.528503,-21.485809 -46.171906,-102.044403 -46.400391,-122.201096c-0.228607,-20.156799 0.32901,-89.743805 45.0289,-119.458298c5.790009,-5.942703 -3.049408,-3.656906 -2.287598,-3.657005c-50.386703,21.028801 -51.200302,106.158501 -51.200302,123.886604l0,0l0,0l0,0z"/>
   <rect fill="none" fill-rule="evenodd" stroke="url(#linearGradient3169)" stroke-width="0.781433" y="205.30272" x="211.67422" width="5.818563" id="rect624" height="4.202278"/>
   <rect fill="none" fill-rule="evenodd" stroke="url(#linearGradient3171)" stroke-width="0.781431" y="287.40738" x="211.67354" width="5.818552" id="rect625" height="4.202267"/>
   <path fill="none" fill-rule="evenodd" stroke="url(#linearGradient3179)" stroke-width="0.976792" stroke-linecap="square" stroke-linejoin="round" id="path638" d="m12.22652,184.611801c-0.625549,0 -2.529559,3.636292 -2.839649,5.052094c-2.95184,8.371613 -3.85098,14.41571 -5.35426,23.061111c-0.64728,6.287201 -4.86453,31.431992 -5.07806,33.172089c0.1319,1.056702 0.96698,-0.353088 1.08288,-0.53389c2.77889,-4.337509 2.59108,-9.843811 3.617,-14.813202c1.4851,-7.355209 2.91473,-18.596909 5.35751,-28.409698c2.61057,-10.648407 6.72564,-22.067505 2.56802,-21.406006"/>
   <path fill="none" fill-rule="evenodd" stroke="url(#linearGradient3181)" stroke-width="0.976792" stroke-linecap="square" stroke-linejoin="round" id="path639" d="m12.22652,312.553894c-0.625549,0 -2.529559,-3.636292 -2.839649,-5.052185c-2.95184,-8.371521 -3.85098,-14.415619 -5.35426,-23.061005c-0.64728,-6.287292 -4.86453,-31.432098 -5.07806,-33.172211c0.1319,-1.056595 0.96698,0.35321 1.08288,0.534012c2.77889,4.337509 2.59108,9.843796 3.617,14.813187c1.4851,7.355103 2.91473,18.596893 5.35751,28.409698c2.61057,10.648315 6.72564,22.067505 2.56802,21.406006"/>
   <path fill="url(#linearGradient3183)" fill-rule="evenodd" stroke="url(#linearGradient3185)" stroke-width="0.781433" id="path626" d="m38.859341,342.700012c4.278481,10.800476 10.92498,35.797485 52.928761,53.427002c-73.029921,-2.860321 -78.933901,-69.907928 -80.917912,-73.091705"/>
   <path fill="url(#linearGradient3187)" fill-rule="evenodd" stroke="#ffff00" stroke-width="0.781433" id="path627" d="m38.859341,342.700012c4.278481,10.800476 10.92498,35.797485 52.928761,53.427002c-62.685781,-18.053223 -67.620001,-59.240509 -69.604021,-62.424408"/>
   <path fill="url(#radialGradient3189)" fill-rule="evenodd" id="path629" d="m36.632092,360.706512a5.091247,5.091247 0 1 1 -10.182495,0a5.091247,5.091247 0 1 1 10.182495,0z"/>
   <path fill="url(#linearGradient3191)" fill-rule="evenodd" stroke="url(#linearGradient3193)" stroke-width="0.781433" id="path641" d="m320.919586,378.035309c-9.600281,-2.557922 -15.643982,-3.8302 -17.372681,-4.287506c-25.447906,9.600006 -176.153603,1.828583 -264.230427,-31.085999c7.415352,27.658203 29.406689,44.9758 54.854603,54.575806c32.357918,1.371185 189.719208,5.5849 203.89093,5.026794c5.485779,-9.143097 14.171692,-17.371796 22.857574,-24.229095l0,0z"/>
   <path fill="url(#linearGradient3195)" fill-rule="evenodd" stroke="url(#linearGradient3197)" stroke-width="0.781433" id="path643" d="m320.919586,378.035309c-9.600281,-2.557922 -15.643982,-3.8302 -17.372681,-4.287506c-25.447906,9.600006 -176.153603,1.828583 -264.230427,-31.085999c2.386673,4.800507 4.720432,14.803711 10.967911,22.117889c64.815807,23.314606 148.118214,27.071106 252.8064,30.170197c8.685822,-8.685883 9.142914,-10.057281 17.828796,-16.914581l0,0l0,0z"/>
   <path fill="url(#linearGradient3199)" fill-rule="evenodd" stroke="url(#linearGradient3201)" stroke-width="0.781433" id="path645" d="m321.533112,377.891296c-3.292297,0 -16.593719,14.367096 -18.438019,16.820007c-2.627106,3.870605 -4.571594,4.571594 -4.571594,7.771698c115.202698,-1.050507 174.861298,-7.222107 194.518799,-3.200012c8.91449,-3.42868 5.485901,-7.543182 3.657196,-24.457886c-2.742798,-2.378204 -19.336578,0.228607 -22.628998,0.228607c-53.944183,0 -93.259399,2.514282 -147.203583,2.514282l-5.333801,0.323303l0,0z"/>
   <path fill="url(#linearGradient3203)" fill-rule="evenodd" stroke="url(#linearGradient3205)" stroke-width="0.781433" id="path674" d="m38.536091,154.780106c4.278469,-10.800507 10.92498,-35.797508 52.928753,-53.427002c-73.029913,2.860298 -78.933894,69.907898 -80.917904,73.09169"/>
   <path fill="url(#linearGradient3223)" fill-rule="evenodd" stroke="#ffff00" stroke-width="0.781433" id="path675" d="m38.536091,154.780106c4.278469,-10.800507 10.92498,-35.797508 52.928753,-53.427002c-62.685774,18.0532 -67.620005,59.240494 -69.604013,62.424393"/>
   <path fill="url(#svg_24)" fill-rule="evenodd" id="path676" d="m36.308891,136.77356"/>
   <path fill="url(#linearGradient3227)" fill-rule="evenodd" stroke="url(#linearGradient3256)" stroke-width="0.781433" id="path677" d="m320.596405,119.444801c-9.600311,2.557899 -15.644104,3.830101 -17.372803,4.287498c-25.447906,-9.599998 -176.153503,-1.828598 -264.230381,31.085999c7.415359,-27.658195 29.406689,-44.9758 54.854595,-54.575798c32.357887,-1.371162 189.71917,-5.584862 203.890984,-5.026764c5.485809,9.143066 14.1716,17.371765 22.857605,24.229065l0,0z"/>
   <path fill="url(#linearGradient3259)" fill-rule="evenodd" stroke="url(#linearGradient3273)" stroke-width="0.781433" id="path678" d="m320.596405,119.444801c-9.600311,2.557899 -15.644104,3.830101 -17.372803,4.287498c-25.447906,-9.599998 -176.153503,-1.828598 -264.230381,31.085999c2.386669,-4.800491 4.72044,-14.803696 10.967918,-22.117905c64.815762,-23.31459 148.11816,-27.071091 252.806347,-30.170197c8.685913,8.685905 9.142914,10.057304 17.828918,16.914604l0,0l0,0z"/>
   <path fill="url(#linearGradient3275)" fill-rule="evenodd" stroke="url(#linearGradient3277)" stroke-width="0.781433" id="path688" d="m320.007202,135.282593c-9.933014,0 -17.828888,4.238602 -26.514709,21.9431c-19.657501,31.695709 -22.857483,144.764297 0,181.488693c10.057312,23.647308 20.696106,23.314606 31.086121,22.400208l19.439392,-3.624481c1.349396,-11.148315 2.439209,-22.632416 3.301086,-34.229706c0.861694,-11.597321 -0.894501,-19.947998 -5.610077,-32.393921c10.494385,-10.457794 8.220886,-25.605988 8.296692,-36.764587c0.075897,-11.158493 -0.013306,-21.984604 -0.235809,-32.255692c-0.890198,-41.084 -3.914703,-73.285202 -7.054504,-82.3479l-22.708191,-4.215714l0,0l0,0l0,0l0,0l0,0l0,0z"/>
   <path fill="url(#linearGradient3279)" fill-rule="evenodd" stroke="url(#linearGradient3281)" stroke-width="0.781433" id="path694" d="m376.862091,310.676392c0,8.212402 -2.026184,14.869812 -4.525604,14.869812c-2.499481,0 -19.718781,2.716888 -20.042084,-16.486115c1.292999,-19.203186 17.542603,-13.253601 20.042084,-13.253601c2.49942,0 4.525604,6.657501 4.525604,14.869904l0,0z"/>
   <path fill="url(#linearGradient3283)" fill-rule="evenodd" stroke="url(#linearGradient3285)" id="path692" d="m376.861969,310.6763a4.525599,14.869873 0 1 1 -9.051208,0a4.525599,14.869873 0 1 1 9.051208,0z"/>
   <path fill="#000080" fill-rule="evenodd" id="path695" d="m376.861908,310.51474a3.070953,6.950065 0 1 1 -6.141907,0a3.070953,6.950065 0 1 1 6.141907,0z"/>
   <path fill="url(#linearGradient3287)" fill-rule="evenodd" stroke="url(#linearGradient3289)" stroke-width="0.781433" id="path2385" d="m341.619385,289.838409l18.910309,7.111603l-0.484894,22.465881l-16.80899,6.303497l-7.596497,-18.587006l5.980072,-17.293976z"/>
   <path fill="#000080" fill-rule="evenodd" id="path696" d="m15.782561,248.449173a7.111681,8.24311 0 1 1 -14.223363,0a7.111681,8.24311 0 1 1 14.223363,0z"/>
   <path fill="url(#linearGradient3291)" fill-rule="evenodd" stroke="url(#linearGradient3293)" stroke-width="0.781433" id="path698" d="m342.596588,308.898499c0,13.300507 -3.752899,19.233795 -13.09198,23.759491c-9.015717,0 -20.526794,-10.135803 -20.526794,-23.436279c0,-13.300598 13.12738,-21.496796 22.143188,-21.496796c6.106384,2.262878 11.475586,7.872986 11.475586,21.173584l0,0z"/>
   <path fill="url(#linearGradient3295)" fill-rule="evenodd" stroke="url(#linearGradient3297)" stroke-width="0.781433" id="path699" d="m305.098694,309.22171c-0.228607,11.450378 14.230194,29.185486 23.705292,27.809082c4.975311,-0.705688 2.855804,-4.807098 0.700623,-4.372803c-9.015717,0 -20.526794,-10.135803 -20.526794,-23.436279c0,-13.300598 13.12738,-21.496796 22.143188,-21.496796c2.367401,-1.383026 2.990906,-4.700317 0.707611,-4.819702c-14.237213,-0.732819 -26.272827,16.465973 -26.729919,26.316498l0,0l0,0l0,0z"/>
   <path fill="url(#linearGradient3299)" fill-rule="evenodd" stroke="url(#linearGradient3301)" stroke-width="0.781433" id="path2384" d="m342.596588,308.898499c0,13.300507 -3.752899,19.233795 -13.09198,23.759491c12.64209,0.646423 14.707703,-1.246399 14.869293,-23.5979c-0.161591,-22.836578 -4.328308,-23.5979 -13.252899,-21.335175c6.106384,2.262878 11.475586,7.872986 11.475586,21.173584l0,0l0,0l0,0z"/>
   <path fill="url(#linearGradient3303)" fill-rule="evenodd" stroke="url(#linearGradient3305)" stroke-width="0.781433" id="path2387" d="m362.792389,309.960785c0.565704,4.470215 2.473999,52.748322 13.272217,10.190002c0.007202,1.843323 0.252197,9.411316 -0.17041,12.213104c-0.845184,5.603821 -3.067505,8.952301 -7.444885,8.871521c-8.7547,-0.161621 -10.990509,-13.070801 -10.990509,-30.789703c0,-17.718811 4.498596,-32.244324 15.677704,-32.567596l0.090881,2.931793c-8.806183,3.392883 -10.434998,20.291595 -10.434998,29.150879l0,0l0,0l0,0l0,0l0,0z"/>
   <path fill="url(#linearGradient3307)" fill-rule="evenodd" stroke="url(#linearGradient3309)" stroke-width="0.781433" id="path2390" d="m368.494995,226.762894l0.413696,42.802597c7.886597,0.03241 0.908905,26.123901 8.699402,65.948822l-1.828583,-161.831207c-2.751404,25.451294 0.638885,52.842102 -7.284515,53.079788l0,0z"/>
   <path fill="url(#linearGradient3311)" fill-rule="evenodd" stroke="url(#linearGradient3313)" stroke-width="0.781433" id="path2397" d="m350.025208,222.761398l0,51.07399l21.65799,-5.818573l0,-40.083313l-21.65799,-5.172104l0,0z"/>
   <path fill-rule="evenodd" stroke="url(#linearGradient3315)" stroke-width="0.781433" id="path2392" d="m350.347687,238.602295c-2.686279,0 -4.848785,2.162506 -4.848785,4.848907c0,3.232391 0,6.464996 0,9.697495c0,2.686096 2.162506,4.848801 4.848785,4.848801c5.387512,0 12.930115,-2.809097 16.809113,-5.171997c2.6922,-1.789093 2.451813,-7.591003 0,-9.697601c-3.878998,-3.009598 -11.4216,-4.525604 -16.809113,-4.525604l0,0l0,0z"/>
   <path fill="url(#linearGradient3320)" fill-rule="evenodd" stroke="url(#linearGradient3324)" stroke-width="0.781433" id="path2394" d="m363.27771,265.270691c0.565704,1.777924 3.555878,5.010406 4.848877,5.010406c1.432617,0 1.45462,-0.991791 1.45462,-2.424408c0,-12.499191 0,-24.998291 0,-37.497391c0,-1.432495 0.083496,-3.380493 -1.45462,-2.747604c-1.741974,0.85321 -3.673798,1.855103 -4.606476,3.555908c-1.170197,2.2146 -0.732025,32.756592 -0.242401,34.103088l0,0z"/>
   <path fill="none" fill-rule="evenodd" stroke="url(#linearGradient3326)" stroke-width="0.781433" id="path2398" d="m288.9198,247.467407c2.139099,-99.597412 29.445709,-97.532913 53.486389,-105.601303c-6.470398,8.036194 -5.105774,71.015289 -5.028595,106.515503c0.075195,34.595901 -3.858185,107.694687 5.485718,103.77269c-29.609711,0.295288 -55.636719,-25.393982 -53.943512,-104.68689l0,0z"/>
   <path fill="url(#linearGradient3328)" fill-rule="evenodd" stroke="url(#linearGradient3330)" stroke-width="0.781433" id="path2400" d="m285.650299,232.1866c0.000092,2.919495 3.339813,8.547302 3.95871,-1.496094c0.352203,-5.456207 0.737976,-10.545898 1.237183,-15.291504c0.998413,-9.490997 2.15921,-17.654907 3.952606,-24.581207c3.464996,-13.824188 11.591705,-25.378998 9.793915,-26.769394c-4.746704,-3.972794 -18.943207,40.312302 -18.942413,68.138199l0,0z"/>
   <path fill="url(#linearGradient3332)" fill-rule="evenodd" stroke="url(#linearGradient3334)" stroke-width="0.781433" id="path2401" d="m285.193207,264.02771c0,-2.919403 3.339691,-8.547211 3.958588,1.496094c0.352203,5.456207 0.738098,10.54599 1.237305,15.291504c0.998291,9.491089 2.159088,17.654907 3.952515,24.581299c3.465088,13.824097 11.591675,25.378998 9.793976,26.769379c-4.746796,3.972809 -18.943176,-40.312286 -18.942383,-68.138275l0,0z"/>
   <path fill="none" fill-rule="evenodd" stroke="url(#linearGradient3336)" stroke-width="0.781433" id="path2411" d="m680.393799,125.134598c0,0 -3.879089,-2.262901 -5.495422,0.969704c-1.61615,3.232597 -1.939453,3.232597 9.051147,27.799904c5.495361,12.2836 8.970276,19.637695 12.728149,28.042389c3.111206,17.132507 5.212402,52.771301 5.374023,66.671204c-0.161621,13.899902 -2.262817,49.538788 -5.374207,66.671295c-3.757813,8.404602 -7.232666,15.75882 -12.727966,28.042419c-10.990723,24.567291 -10.667419,24.567291 -9.051208,27.799896c1.616394,3.232605 5.495361,0.969696 5.495361,0.969696"/>
   <path fill="url(#linearGradient3338)" fill-rule="evenodd" stroke="url(#linearGradient3340)" stroke-width="0.781433" id="path2415" d="m714.529419,248.654404c0,85.58989 -17.546997,143.689102 -91.417908,152.2314c15.510315,-1.881104 55.205566,-23.074188 57.712769,-28.944702c11.451538,-25.380615 22.063904,-79.498688 22.063904,-122.293701c0,-42.794907 -8.082764,-100.777496 -22.298706,-124.001801c-8.267883,-12.681297 -27.702271,-19.053101 -50.423401,-29.398857c66.470642,4.729256 84.363342,66.817757 84.363342,152.407661l0,0l0,0l0,0l0,0z"/>
   <path fill="none" fill-rule="evenodd" stroke="url(#linearGradient3342)" stroke-width="0.781433" id="path2416" d="m578.298279,131.166595c18.59082,-7.009598 68.267822,8.381012 102.401794,17.371704c28.64801,67.048904 22.095642,135.011993 0.914307,198.403595c-34.133972,9.60022 -79.239563,28.343201 -102.401855,16.457397c29.714905,-18.895477 24.8396,-78.065704 24.686157,-117.030685c-0.151306,-38.445908 4.876343,-90.5159 -25.600403,-115.202011c0,0 0,0 0,0l0,0z"/>
   <path fill="url(#linearGradient3344)" fill-rule="evenodd" stroke="url(#linearGradient3346)" stroke-width="0.781433" id="path2403" d="m496.459503,378.568115c26.830109,-0.754211 55.922699,2.047272 82.429413,-14.546417c22.358398,9.589996 70.253784,-9.26651 103.926086,-17.778809c-2.15509,8.40451 -11.260193,15.677795 -7.919922,24.244019c1.077637,0.700287 1.670105,2.855286 5.172119,0.646393c-6.249512,11.637085 -31.571106,20.041809 -49.781006,29.092896c-26.829895,3.016998 -47.841309,1.508392 -71.762024,2.262604c-34.911194,-0.431 -49.780884,0.754211 -67.883057,-3.555786c5.818481,-1.616302 9.374298,-5.172028 5.81839,-20.364899l0,0l0,0l0,0z"/>
   <path fill="url(#linearGradient3348)" fill-rule="evenodd" stroke="url(#linearGradient3350)" stroke-width="0.781433" id="path2404" d="m496.459503,378.568115c26.830109,-0.754211 55.922699,2.047272 82.429413,-14.546417c22.358398,9.589996 70.253784,-9.26651 103.926086,-17.778809c-2.15509,8.40451 -6.411499,13.738312 -11.475708,19.718414c-23.166382,8.781708 -85.01532,24.136108 -108.935974,24.890411c-24.405396,0.215393 -56.650208,2.424377 -65.337616,2.990082c1.436188,-2.872589 1.171783,-7.677185 -0.606201,-15.273682l0,0l0,0l0,0l0,0l0,0l0,0l0,0l0,0z"/>
   <path fill="url(#linearGradient3352)" fill-rule="evenodd" stroke="url(#linearGradient3354)" stroke-width="0.781433" id="path2433" d="m578.298279,131.166595c12.287292,-3.615494 16.223816,-2.609589 25.467041,-0.730499c19.596985,68.341797 12.398071,169.277008 0.267761,234.608093c-7.626953,3.458313 -13.618652,4.584015 -24.820557,-1.644897c29.714905,-18.895477 24.8396,-78.065704 24.686157,-117.030685c-0.151306,-38.445908 4.876343,-90.5159 -25.600403,-115.202011c0,0 0,0 0,0l0,0l0,0z"/>
   <path fill="url(#linearGradient3356)" fill-rule="evenodd" stroke="url(#linearGradient3358)" stroke-width="0.781433" id="path2473" d="m493.897888,358.001404l0,4.164795l13.719116,0l-0.244995,5.879608l-17.393799,0c0,0 -1.9599,-9.799408 3.919678,-10.044403z"/>
   <path fill="url(#linearGradient3360)" fill-rule="evenodd" stroke="url(#linearGradient3362)" stroke-width="0.781433" id="path2474" d="m490.223114,367.800812l4.654694,-0.244904l0.244995,2.204803l10.779297,0l1.224915,4.899597l-2.449829,1.9599l-6.369598,0l-0.489899,-3.429718l-7.839478,-0.48999l0.244904,-4.899689z"/>
   <path fill="url(#linearGradient3364)" fill-rule="evenodd" stroke="url(#linearGradient3366)" stroke-width="0.781428" id="path2730" d="m469.6716,185.0327l0.457214,-25.600494l-10.057404,-11.428802c0,0 -31.543518,-6.400208 -40.229401,-6.400208c-8.685913,0 -17.371918,2.285812 -17.371918,2.285812c0,0 0,0 -2.742889,85.033493c0,0 4.000092,-1.942795 5.657288,-4.114304c2.831818,1.826904 10.114502,1.371399 14.45752,1.371399c8.685883,0 40.229401,-6.400101 40.229401,-6.400101l10.057404,-11.428696l-0.457214,-25.600098"/>
   <path fill="url(#linearGradient3368)" fill-rule="evenodd" stroke="url(#linearGradient3370)" stroke-width="0.781433" id="path2732" d="m507.8078,202.739502c-3.257202,0 -4.532104,-6.1745 -4.532104,-9.431808c0,-9.145996 0,-9.350189 0,-18.496292c0,-3.257202 1.152313,-9.431808 4.409607,-9.431808c2.939789,0 5.8797,0 8.819397,0c3.257324,0 5.879578,2.009903 5.879578,5.267105c-4.164673,1.551605 -6.124573,22.334305 0,27.438202c0.027893,3.422195 -2.499695,4.654602 -5.75708,4.654602l-8.819397,0l0,0l0,0z"/>
   <path fill="none" fill-rule="evenodd" stroke="url(#linearGradient3372)" stroke-width="0.781433" id="path2735" d="m405.442108,217.034195l0,-32.686493l37.486603,0l0,26.7435c-12.724121,1.295303 -25.676819,2.361893 -37.486603,5.942993l0,0z"/>
   <path fill="none" fill-rule="evenodd" stroke="url(#linearGradient3374)" stroke-width="0.781433" id="path2736" d="m442.700195,210.862595l0,-26.743393l26.972107,0l0.228485,25.828995l-27.200592,0.914398l0,0z"/>
   <path fill="none" fill-rule="evenodd" stroke="url(#linearGradient3376)" stroke-width="0.781433" id="path2737" d="m405.442108,151.291702l0,32.686493l37.486603,0l0,-26.7435c-12.724121,-1.295288 -25.676819,-2.361893 -37.486603,-5.942993l0,0z"/>
   <path fill="none" fill-rule="evenodd" stroke="url(#linearGradient3378)" stroke-width="0.781433" id="path2738" d="m442.700195,157.463303l0,26.743393l26.972107,0l0.228485,-25.828995l-27.200592,-0.914398l0,0z"/>
   <path fill="none" fill-rule="evenodd" stroke="url(#linearGradient3380)" stroke-width="0.781433" id="path2739" d="m469.410187,159.302994c5.774323,0.231003 11.548615,0.462006 17.322906,0.692902c4.850494,-1.616791 8.661499,-4.272995 12.472595,-7.968597c-12.357086,-5.774399 -25.060577,-7.737503 -39.149902,-7.968491c-0.346497,6.467285 3.811005,10.855789 9.354401,15.244186l0,0z"/>
   <path fill="url(#linearGradient3382)" fill-rule="evenodd" stroke="url(#linearGradient3384)" stroke-width="0.781433" id="path2748" d="m539.781677,167.465607l2.449829,-13.229111l-23.518494,-0.735001l7.104614,17.148911l13.96405,-3.184799z"/>
   <path fill="url(#linearGradient3386)" fill-rule="evenodd" id="path2740" d="m505.788391,165.885696c4.850403,0.231003 9.700806,0.461899 14.551208,0.692902c2.483093,-15.937103 -42.845398,-26.850403 -59.764191,-23.385803l-0.692902,2.251801c34.2995,-2.367401 46.598785,8.603806 45.905884,20.441101l0,0z"/>
   <rect fill="url(#linearGradient3388)" fill-rule="evenodd" stroke="url(#linearGradient3390)" stroke-width="0.726845" y="-172.48752" x="535.37146" width="9.43181" transform="scale(1, -1)" ry="2.449752" id="rect2744" height="18.496309"/>
   <path fill="none" fill-rule="evenodd" stroke="url(#linearGradient3392)" stroke-width="0.781433" id="path2741" d="m469.165192,209.111298c5.774323,-0.231003 11.548615,-0.46199 17.322906,-0.692902c4.850494,1.616806 8.661499,4.27301 12.472595,7.968597c-12.357086,5.774414 -25.060608,7.737503 -39.149902,7.968506c-0.346497,-6.467194 3.811096,-10.855804 9.354401,-15.244202l0,0z"/>
   <path fill="url(#linearGradient3394)" fill-rule="evenodd" id="path2742" d="m505.543396,202.528595c4.850403,-0.230896 9.700928,-0.461899 14.551208,-0.692902c2.483093,15.937103 -42.845398,26.850403 -59.764099,23.385803l-0.692902,-2.251801c34.299408,2.367401 46.598785,-8.60379 45.905792,-20.441101l0,0z"/>
   <path fill="url(#linearGradient3396)" fill-rule="evenodd" stroke="url(#linearGradient3398)" stroke-width="0.781433" id="path2743" d="m533.286682,176.404694c11.636536,-2.082291 14.934814,-12.244293 4.287292,-13.1064c-8.853882,-0.708893 -13.719177,3.552109 -18.618896,12.861511c0,0 -0.244873,7.961899 -0.122375,8.635498c-0.122498,0.673492 0.122375,8.635498 0.122375,8.635498c4.899719,9.309402 8.270996,16.320801 17.149048,16.046295c11.872498,-0.372299 5.389282,-10.779099 -2.940002,-17.148697l0.122559,-15.923706z"/>
   <path fill="url(#linearGradient3400)" fill-rule="evenodd" stroke="url(#linearGradient3402)" stroke-width="0.781433" id="path2752" d="m474.370087,134.391907c11.228424,8.3703 26.463409,10.113388 37.727509,16.65889c5.989929,3.545807 9.880981,11.473404 9.309326,19.598602c1.306702,-0.979904 2.613159,-1.959793 3.9198,-2.939697c-1.225037,-9.4319 -6.708008,-18.601898 -14.699036,-22.048599c-19.932587,-8.667007 -22.415985,-6.777908 -21.31369,-23.518402c-3.592987,-0.163399 -6.451202,0.1633 -10.044281,0c-1.633209,4.083099 -3.266418,8.166107 -4.899628,12.249207l0,0z"/>
   <path fill="url(#linearGradient3404)" fill-rule="evenodd" stroke="#00007f" id="path2754" d="m531.003662,100.342499a13.012754,6.29456 0 1 1 -26.025482,4.031342a13.012754,6.29456 0 1 1 26.025482,-4.031342z"/>
   <path fill="url(#linearGradient3406)" fill-rule="evenodd" stroke="url(#linearGradient3408)" stroke-width="0.781433" id="path2769" d="m399.256592,358.486389l3.291412,-6.756104c-0.923889,-35.165894 -2.713013,-70.330872 -2.771698,-105.497879c-0.056793,-34.067703 1.616882,-68.137512 2.425201,-102.206406l-4.330719,-6.582794l-4.33078,-0.346405l-8.128204,110.781403l7.781799,110.781403l6.062988,-0.173218l0,0l0,0l0,0z"/>
   <path fill-rule="evenodd" stroke-width="0.781433" id="path2770" d="m402.548004,351.730286c-0.923889,-35.165894 -2.713013,-70.330872 -2.771698,-105.497879c-0.056793,-34.067703 1.616882,-68.137512 2.425201,-102.206406l-4.330719,-6.582794c2.829498,36.378693 -0.978882,72.756287 -0.86618,109.135788c-0.0578,37.244797 2.309692,74.489395 1.905487,111.734207l3.637909,-6.582916l0,0z"/>
   <path fill="url(#linearGradient3410)" fill-rule="evenodd" stroke="url(#linearGradient3412)" stroke-width="0.781433" id="path2773" d="m501.463898,377.887512l54.048187,-20.441315l29.795837,-2.425293l-13.165527,10.047485l-36.378723,11.086823l-34.299774,1.7323z"/>
   <path fill="url(#linearGradient3414)" fill-rule="evenodd" stroke="url(#linearGradient3416)" stroke-width="0.781433" id="path2772" d="m494.534607,115.961403l0.346497,5.543396c0,0 73.450195,-0.964699 89.041077,20.862495c18.387024,28.636398 17.2276,103.422302 16.785645,104.044205c-8.123596,27.679108 -1.19812,90.025604 -18.207031,108.669403c-25.35791,24.562805 -86.926788,22.460205 -86.926788,22.460205l0.346497,1.732178c0,0 70.332123,4.850525 92.15921,-24.598877c21.827087,-29.44931 16.630066,-84.190399 17.669495,-108.096405c1.03949,-23.906006 1.03949,-101.167297 -28.063416,-115.372208c-29.102966,-14.204994 -83.151184,-14.204994 -83.151184,-15.244392l0,0l0,0l0,0z"/>
   <path fill="url(#linearGradient3418)" fill-rule="evenodd" stroke="url(#linearGradient3420)" stroke-width="0.781433" id="path2776" d="m544.771729,239.995193c0,0 -44.693634,-5.889893 -53.355225,-5.889893c-8.661591,0 -10.047516,1.385895 -10.394012,12.472702c-0.346405,11.086792 -0.346405,16.976593 10.740417,16.630188c11.086792,-0.346497 53.701813,-7.622192 53.701813,-7.622192l-0.692993,-15.590805z"/>
   <path fill="url(#linearGradient3422)" fill-rule="evenodd" stroke="url(#linearGradient3424)" stroke-width="0.781433" id="path2777" d="m504.928497,235.491196c0,0 -4.850403,-1.385895 -13.511993,-1.385895c-8.661591,0 -10.047516,1.385895 -10.394012,12.472702c-0.346405,11.086792 -0.346405,16.976593 10.740509,16.630188c6.236298,-0.346497 7.968597,-1.039398 12.819092,-1.385895l0.346405,-26.3311l0,0z"/>
   <rect fill="url(#linearGradient3426)" fill-rule="evenodd" y="238.95581" x="523.29102" width="8.315128" ry="3.118138" id="rect2778" height="18.70899"/>
   <rect fill="url(#linearGradient3428)" fill-rule="evenodd" y="239.99521" x="503.19623" width="4.157564" ry="3.464581" id="rect2779" height="17.323143"/>
   <path fill="url(#linearGradient3430)" fill-rule="evenodd" stroke="url(#linearGradient3432)" stroke-width="0.781428" id="path2731" d="m407.270294,171.775208c2.74292,-25.371902 -4.571594,-19.657501 -4.571594,-19.657501c0,0 -0.228607,-8.228699 -2.971497,76.804794c0,0 4.000092,-1.942795 5.657288,-4.114304l1.885803,-53.03299z"/>
   <path fill="url(#linearGradient3434)" fill-rule="evenodd" stroke="url(#linearGradient3436)" stroke-width="0.781433" id="path2783" d="m414.848297,242.420105c0,0 30.674103,-0.257111 35.685699,-3.4646c3.649902,-2.335907 25.638306,-2.771698 27.71701,0.346497c2.078888,3.118103 3.464691,15.590805 0,17.669586c-3.464508,2.078827 -21.827118,2.771698 -28.063507,0c-6.236298,-2.771683 -5.196899,-3.811081 -14.551392,-3.811081c-9.354523,0 -32.2211,0 -32.2211,0l0.346405,-10.740402l11.086884,0l0,0z"/>
   <path fill="none" fill-rule="evenodd" stroke="url(#linearGradient3438)" stroke-width="0.781433" id="path622" d="m320.007202,135.282593c-9.933014,0 -17.828888,4.238602 -26.514709,21.9431c-19.657501,31.695709 -22.857483,144.764297 0,181.488693c10.057312,23.647308 20.696106,23.314606 31.086121,22.400208l36.572083,-6.857086c25.01889,-3.200104 19.657501,-6.524506 16.457397,-18.743195l-1.828583,-161.831207c2.742889,-23.6474 10.390198,-28.343201 -9.143005,-30.629013l-46.629303,-7.7715l0,0l0,0z"/>
   <path fill="url(#linearGradient3440)" fill-rule="evenodd" stroke="url(#linearGradient3442)" stroke-width="0.781433" id="path620" d="m383.548706,254.604004c-1.371521,20.299805 2.64209,78.00061 6.856689,98.115082c1.066803,0.914215 -79.237885,18.286011 -83.656403,16.457611c-46.528503,-21.485809 -46.171906,-102.044403 -46.400391,-122.201096c-0.228607,-20.156799 0.32901,-89.743805 45.0289,-119.458298c5.790009,-4.342606 73.294495,13.486191 86.170898,15.771896c-10.3862,41.371994 -7.999695,93.586807 -7.999695,111.314896l0,0l0,0l0,0l0,0l0,-0.000092z"/>
   <path fill="url(#linearGradient3444)" fill-rule="evenodd" id="path3223" d="m533.286682,176.404694c11.636536,-2.082291 14.934814,-12.244293 4.287292,-13.1064c-8.853882,-0.708893 -13.719177,3.552109 -18.618896,12.861511c0,0 -0.244873,7.961899 -0.122375,8.635498c-0.122498,0.673492 0.122375,8.635498 0.122375,8.635498c4.899719,9.309402 8.270996,16.320801 17.149048,16.046295c11.872498,-0.372299 5.389282,-10.779099 -2.940002,-17.148697l0.122559,-15.923706z"/>
   <path fill="url(#linearGradient3446)" fill-rule="evenodd" stroke="url(#linearGradient3448)" stroke-width="0.781433" id="path2782" d="m398.564514,235.490906c15.937286,0 22.520081,-0.693008 22.520081,12.819092c0.346497,12.819214 -5.196899,13.512115 -22.520081,12.819092l0,-19.401886l0,-6.236298l0,0z"/>
   <path fill="url(#linearGradient3450)" fill-rule="evenodd" stroke="url(#linearGradient3452)" stroke-width="0.781433" id="path2781" d="m398.564514,241.727203c14.551392,-0.346405 15.244385,0 15.244385,5.889893c0,5.889908 0.346497,7.622208 -15.244385,7.275711l0,-13.165604l0,0z"/>
   <rect fill="url(#linearGradient3454)" fill-rule="evenodd" y="247.27057" x="415.19489" width="41.575474" id="rect2784" height="2.771669"/>
   <rect fill="url(#linearGradient3456)" fill-rule="evenodd" y="245.88477" x="425.24219" width="16.976711" ry="1.039355" id="rect2785" height="5.196955"/>
   <rect fill="url(#linearGradient3460)" fill-rule="evenodd" stroke="url(#linearGradient3462)" stroke-width="0.781433" y="241.0343" x="456.42389" width="19.748405" ry="2.771634" id="rect2786" height="14.204984"/>
   <path fill="url(#linearGradient3464)" fill-rule="evenodd" stroke="url(#linearGradient3466)" stroke-width="0.781433" id="path2435" d="m307.208588,369.798096l-3.657196,3.885712l17.996704,4.342987l72.771118,-18.827209l-2.971405,-8.937592c-27.276703,10.209717 -55.948212,15.040802 -84.139221,19.536102l0,0l0,0l0,0z"/>
   <path fill="url(#linearGradient3468)" fill-rule="evenodd" stroke="url(#linearGradient3470)" stroke-width="0.781433" id="path2436" d="m308.008514,126.706902l-3.657227,-3.885803l17.371826,-4.342995l72.458588,18.514694l-2.971497,8.000198c-27.276703,-10.209793 -55.01062,-13.790802 -83.201691,-18.286095l0,0z"/>
   <path fill="url(#linearGradient3472)" fill-rule="evenodd" stroke="url(#linearGradient3474)" stroke-width="0.781433" id="path2775" d="m549.968689,138.827896l33.260498,3.4646c0,0 20.441284,19.4021 18.016113,110.521912c-2.425293,91.119705 -18.708984,102.899399 -18.708984,102.899399l-31.874695,2.078796c0,0 -7.719238,-71.098114 -6.176331,-111.310196c1.607727,-41.443405 5.136902,-107.308014 5.483398,-107.65451l0,0z"/>
   <g font-size="12px" id="g3415">
    <path fill="url(#svg_22)" fill-rule="evenodd" stroke="url(#svg_23)" stroke-width="0.781433" id="path3273" d="m400.208282,264.166138l38.707397,-2.694824c4.164825,0.735107 -2.939697,2.939911 18.618805,2.694885c2.939819,0 32.337891,1.224915 38.462524,1.46991c18.292236,2.449829 31.929749,8.819397 49.731873,10.289307c1.14325,25.233337 1.551575,45.812073 4.164795,71.290405l-41.892242,15.43399l-114.16275,0.244965l8.819397,-10.534241l-2.449799,-88.194397l0,0z"/>
    <path fill="url(#svg_20)" fill-rule="evenodd" stroke="url(#svg_21)" stroke-width="0.781433" id="path3274" d="m400.205505,266.864929c0,0 50.466492,-1.9599 61.245697,-1.469788c10.779205,0.48999 57.325958,5.389679 59.285858,28.907959c1.959778,23.51825 1.469788,33.317566 1.469788,33.317566c0.97998,18.618652 -31.847778,28.907959 -50.466339,28.417969c-18.618713,-0.489929 -9.799316,-10.779236 -9.799316,-10.779236l-61.735687,-78.39447l0,0z"/>
    <path fill="url(#svg_18)" fill-rule="evenodd" stroke="url(#svg_19)" stroke-width="0.781428" id="path3276" d="m469.9841,311.274902l0.457184,25.600525l-10.057404,11.428833c0,0 -31.543488,6.400177 -40.229401,6.400177c-8.685883,0 -17.371887,-2.285797 -17.371887,-2.285797c0,0 0,0 -2.742889,-85.033508c0,0 4.000092,1.94278 5.657288,4.114288c2.831818,-1.826904 10.114502,-1.371399 14.457489,-1.371399c8.685913,0 40.229401,6.400116 40.229401,6.400116l10.057404,11.42868l-0.457184,25.600098"/>
    <path fill="url(#svg_16)" fill-rule="evenodd" stroke="url(#svg_17)" stroke-width="0.781433" id="path3277" d="m508.120331,293.568115c-3.257202,0 -4.532104,6.174561 -4.532104,9.431793c0,9.146027 0,9.35025 0,18.496277c0,3.257263 1.152405,9.431824 4.409607,9.431824c2.939819,0 5.87973,0 8.819427,0c3.257324,0 5.879578,-2.009857 5.879578,-5.26709c-4.164673,-1.551605 -6.124573,-22.33429 0,-27.438232c0.027893,-3.422211 -2.499695,-4.654572 -5.75708,-4.654572l-8.819427,0l0,0l0,0z"/>
    <path fill="none" fill-rule="evenodd" stroke="url(#svg_15)" stroke-width="0.781433" id="path3279" d="m405.7547,279.273438l0,32.686462l37.486481,0l0,-26.743469c-12.724091,-1.295319 -25.676697,-2.361908 -37.486481,-5.942993l0,0z"/>
    <path fill="none" fill-rule="evenodd" stroke="url(#svg_14)" stroke-width="0.781433" id="path3280" d="m443.012695,285.445007l0,26.743469l26.972107,0l0.228485,-25.829163l-27.200592,-0.914307l0,0z"/>
    <path fill="none" fill-rule="evenodd" stroke="url(#svg_13)" stroke-width="0.781433" id="path3281" d="m405.7547,345.01593l0,-32.686493l37.486481,0l0,26.743439c-12.724091,1.295288 -25.676697,2.361969 -37.486481,5.943054l0,0z"/>
    <path fill="none" fill-rule="evenodd" stroke="url(#svg_12)" stroke-width="0.781433" id="path3282" d="m443.012695,338.844299l0,-26.743439l26.972107,0l0.228485,25.829102l-27.200592,0.914337l0,0z"/>
    <path fill="none" fill-rule="evenodd" stroke="url(#svg_11)" stroke-width="0.781433" id="path3283" d="m469.722687,337.004578c5.774323,-0.230988 11.548615,-0.461975 17.322906,-0.692871c4.850525,1.61676 8.661499,4.27301 12.472595,7.968567c-12.357086,5.774414 -25.060608,7.737518 -39.149902,7.968506c-0.346497,-6.467224 3.811005,-10.855743 9.354401,-15.244202l0,0z"/>
    <path fill="url(#svg_9)" fill-rule="evenodd" stroke="url(#svg_10)" stroke-width="0.781433" id="path3284" d="m540.094238,328.842041l2.449829,13.229126l-23.518494,0.734924l7.104553,-17.148865l13.964111,3.184814z"/>
    <path fill="url(#svg_8)" fill-rule="evenodd" id="path3285" d="m506.100922,330.421875c4.850403,-0.230896 9.700836,-0.461914 14.551239,-0.692902c2.483093,15.937164 -42.845459,26.850433 -59.76416,23.385864l-0.692902,-2.251862c34.299408,2.367432 46.598816,-8.603821 45.905823,-20.441101l0,0z"/>
    <rect fill="url(#linearGradient3508)" fill-rule="evenodd" stroke="url(#linearGradient3510)" stroke-width="0.726845" y="323.820129" x="535.68405" width="9.431811" ry="2.449752" id="rect3286" height="18.496311"/>
    <path fill="none" fill-rule="evenodd" stroke="url(#svg_7)" stroke-width="0.781433" id="path3287" d="m469.477692,287.19632c5.774292,0.230988 11.548615,0.461884 17.322998,0.692902c4.850433,-1.616791 8.661407,-4.273102 12.472504,-7.968597c-12.356995,-5.774414 -25.060608,-7.737518 -39.149902,-7.968506c-0.346497,6.467194 3.811096,10.855713 9.354401,15.244202l0,0z"/>
    <path fill="url(#svg_6)" fill-rule="evenodd" id="path3288" d="m505.855927,293.779022c4.850403,0.230896 9.700958,0.461884 14.551239,0.692871c2.483093,-15.937164 -42.845459,-26.850464 -59.76416,-23.385864l-0.692902,2.251892c34.299408,-2.367493 46.598816,8.60379 45.905823,20.441101l0,0z"/>
    <path fill="url(#svg_4)" fill-rule="evenodd" stroke="url(#svg_5)" stroke-width="0.781433" id="path3289" d="m533.599243,319.902924c11.636536,2.082306 14.934814,12.244293 4.287292,13.106415c-8.853882,0.708862 -13.719177,-3.552155 -18.618896,-12.861511c0,0 -0.244873,-7.961945 -0.122375,-8.635529c-0.122498,-0.673523 0.122375,-8.635468 0.122375,-8.635468c4.899719,-9.309418 8.270996,-16.320801 17.148987,-16.046326c11.872559,0.372314 5.389404,10.779144 -2.93988,17.148682l0.122498,15.923737z"/>
    <path fill="url(#svg_2)" fill-rule="evenodd" stroke="url(#svg_3)" stroke-width="0.781428" id="path3295" d="m407.582794,324.532379c2.742889,25.371948 -4.571594,19.657562 -4.571594,19.657562c0,0 -0.228607,8.228699 -2.971497,-76.80481c0,0 4.000092,1.94278 5.657288,4.114288l1.885803,53.032959z"/>
    <path fill="url(#svg_1)" fill-rule="evenodd" id="path3296" d="m533.599243,319.902924c11.636536,2.082306 14.934814,12.244293 4.287292,13.106415c-8.853882,0.708862 -13.719177,-3.552155 -18.618896,-12.861511c0,0 -0.244873,-7.961945 -0.122375,-8.635529c-0.122498,-0.673523 0.122375,-8.635468 0.122375,-8.635468c4.899719,-9.309418 8.270996,-16.320801 17.148987,-16.046326c11.872559,0.372314 5.389404,10.779144 -2.93988,17.148682l0.122498,15.923737z"/>
   </g>
   <path fill="none" fill-rule="evenodd" stroke="url(#linearGradient3526)" stroke-width="1.38917" id="path2413" d="m657.269592,152.956497c8.392212,5.218109 15.949829,12.768906 22.296814,22.099197c12.69397,18.660706 20.545288,44.440308 20.545288,72.915604c0,28.475388 -7.851318,54.254898 -20.545288,72.915604c-6.346985,9.330383 -13.904602,16.881104 -22.296814,22.099091"/>
   <g font-size="12px" id="g3328">
    <path fill="url(#linearGradient3528)" fill-rule="evenodd" stroke="url(#linearGradient3530)" id="path3320" d="m674.411621,368.466034l6.950073,1.454651c8.00061,-4.794952 16.809265,-17.428711 12.606934,-32.406189c-2.585999,-2.909271 -5.818542,0.646393 -7.758179,1.939514c-7.891113,18.525513 -9.717224,17.944122 -11.798828,29.012024l0,0l0,0l0,0z"/>
    <path fill="none" fill-rule="evenodd" id="path2405" d="m685.685181,356.257507a3.030263,6.887911 0 1 1 -6.060486,-3.867523a3.030263,6.887911 0 1 1 6.060486,3.867523z"/>
    <path fill="url(#linearGradient3532)" fill-rule="evenodd" stroke="url(#linearGradient3534)" id="path2406" d="m674.411682,368.466034c2.047302,0.646484 4.90271,0.808075 6.950012,1.454651c8.00061,-4.794952 16.809143,-17.428772 12.606934,-32.406189c-2.585999,-2.909271 -5.818542,0.646393 -7.758179,1.939514c1.831665,10.12854 -0.215454,23.247375 -11.798767,29.012024l0,0l0,0z"/>
    <path fill="url(#linearGradient3536)" fill-rule="evenodd" stroke="url(#linearGradient3538)" id="path2418" d="m699.463928,313.027893c-0.403931,6.195679 -3.232605,16.512939 -5.4953,24.486603c-2.585999,-2.909271 -5.818542,0.646393 -7.758179,1.939514c4.740967,-11.206299 8.296875,-22.223877 13.253479,-26.426117l0,0z"/>
    <path fill="url(#radialGradient3540)" fill-rule="evenodd" id="path3057" d="m686.469177,356.702515a3.030263,6.887911 0 1 1 -6.060486,-3.867493a3.030263,6.887911 0 1 1 6.060486,3.867493z"/>
    <path fill="url(#linearGradient3542)" fill-rule="evenodd" id="path3321" d="m674.411621,368.466034l6.950073,1.454651c8.00061,-4.794952 16.809265,-17.428711 12.606934,-32.406189c-2.585999,-2.909271 -5.818542,0.646393 -7.758179,1.939514c-7.891113,18.525513 -9.717224,17.944122 -11.798828,29.012024l0,0l0,0l0,0z"/>
   </g>
   <g font-size="12px" transform="matrix(1, 0, 0, -1, -14.6877, 545.446)" id="g3335">
    <path fill="url(#linearGradient3544)" fill-rule="evenodd" stroke="url(#linearGradient3546)" id="path3336" d="m689.411804,417.216858l6.950073,1.45462c8.00061,-4.794952 16.809265,-17.428711 12.606934,-32.406189c-2.585999,-2.909271 -5.818542,0.646423 -7.758179,1.939514c-7.891113,18.525513 -9.717224,17.944122 -11.798828,29.012054l0,0l0,0l0,0z"/>
    <path fill="none" fill-rule="evenodd" id="path3337" d="m700.685425,405.008362a3.030264,6.887912 0 1 1 -6.060486,-3.867493a3.030264,6.887912 0 1 1 6.060486,3.867493z"/>
    <path fill="url(#linearGradient3548)" fill-rule="evenodd" stroke="url(#linearGradient3550)" id="path3338" d="m689.411865,417.216858c2.047302,0.646454 4.90271,0.808044 6.950012,1.45462c8.00061,-4.794952 16.809143,-17.428772 12.606934,-32.406189c-2.585999,-2.909271 -5.818542,0.646423 -7.758179,1.939514c1.831665,10.128571 -0.215454,23.247406 -11.798767,29.012054l0,0l0,0z"/>
    <path fill="url(#linearGradient3552)" fill-rule="evenodd" stroke="url(#linearGradient3554)" id="path3339" d="m714.464111,361.778687c-0.403931,6.195679 -3.232605,16.512939 -5.4953,24.486603c-2.585999,-2.909271 -5.818542,0.646423 -7.758179,1.939514c4.740967,-11.206299 8.296875,-22.223846 13.253479,-26.426117l0,0z"/>
    <path fill="url(#radialGradient3556)" fill-rule="evenodd" id="path3340" d="m701.469421,405.453339a3.030264,6.887912 0 1 1 -6.060486,-3.867493a3.030264,6.887912 0 1 1 6.060486,3.867493z"/>
    <path fill="url(#linearGradient3558)" fill-rule="evenodd" id="path3341" d="m689.411804,417.216858l6.950073,1.45462c8.00061,-4.794952 16.809265,-17.428711 12.606934,-32.406189c-2.585999,-2.909271 -5.818542,0.646423 -7.758179,1.939514c-7.891113,18.525513 -9.717224,17.944122 -11.798828,29.012054l0,0l0,0l0,0z"/>
   </g>
   <path fill="url(#linearGradient3560)" fill-rule="evenodd" stroke="url(#linearGradient3562)" stroke-width="0.781433" id="path646" d="m321.694702,377.891296c-3.292297,0 -16.545013,14.540314 -18.599609,16.820007c-3.112,3.224182 165.261017,-1.736115 194.976013,-1.371307c1.600006,-4.342987 0.457092,-1.600189 -1.371613,-18.514893c-2.742798,-2.378204 -19.336578,0.228607 -22.628998,0.228607c-53.944183,0 -93.259399,2.514282 -147.203583,2.514282l0,0l-5.172211,0.323303l0,0z"/>
   <path fill="url(#linearGradient3564)" fill-rule="evenodd" stroke="url(#linearGradient3566)" stroke-width="0.781433" id="path654" d="m466.7258,390.199585c-1.4328,0 -9.051208,0.830017 -9.051208,2.262726l0,0.969879c0,1.432617 1.476501,2.262817 2.909302,2.262817l29.093292,-0.323303c1.432709,0 2.90921,-0.506897 2.90921,-1.939514l0,-0.969879c0,-1.432709 -3.416107,-2.262726 -4.848694,-2.262726l-21.011902,0l0,0z"/>
   <path fill="url(#linearGradient3568)" fill-rule="evenodd" stroke="url(#linearGradient3570)" stroke-width="0.781433" id="path2438" d="m360.875305,370.256714c-1.96991,0 -32.550415,6.688873 -30.580505,6.688873c40.515198,0 115.902802,-0.227783 155.205292,-2.264587c2.936798,-0.127991 3.675415,-3.575989 3.232513,-5.4953c-1.939606,-8.728088 -5.4729,-7.934692 -7.434906,-7.758301c-39.545288,3.879089 -75.203705,-11.724487 -110.365112,4.257813l-10.057281,4.571503l0,0l0,0z"/>
   <path fill="url(#linearGradient3572)" fill-rule="evenodd" stroke="url(#linearGradient3574)" stroke-width="0.781433" id="path691" d="m371.389801,366.599487c-1.96991,0 -12.314209,9.697906 -10.344299,9.697906c40.515106,0 85.1521,0.42041 124.45459,-1.616394c2.936798,-0.127991 3.675415,-3.575989 3.232513,-5.4953c-1.939606,-8.728088 -5.4729,-7.934692 -7.434906,-7.758301c-39.545288,3.879089 -69.392914,5.172089 -109.907898,5.172089l0,0z"/>
   <path fill="url(#linearGradient3576)" fill-rule="evenodd" stroke="url(#linearGradient3578)" stroke-width="0.781433" id="path647" d="m326.866913,377.567993c-3.292419,0 20.569489,3.434814 33.600983,3.428711c4.480408,-0.080811 101.716614,-0.364716 136.231812,-2.285614c0.685608,-0.914276 0.457001,-2.97168 -0.000214,-3.885986c-2.742798,-2.378204 -19.336578,0.228607 -22.628998,0.228607c-53.944183,0 -93.259399,2.514282 -147.203583,2.514282l0,0l0,0l0,0z"/>
   <path fill="url(#linearGradient3580)" fill-rule="evenodd" stroke="url(#linearGradient3582)" stroke-width="0.781433" id="path657" d="m321.421906,378.077301c16.270599,1.670197 24.979095,1.425507 26.992096,7.9198c8.409088,28.173401 8.51239,31.355988 29.092987,31.032684l-12.606995,-35.235077c-3.124786,0.107788 -6.572906,-0.107605 -7.434906,-3.555695l12.607025,-11.960602l-48.650208,11.798889l0,0z"/>
   <path fill="url(#linearGradient3584)" fill-rule="evenodd" stroke="url(#linearGradient3586)" stroke-width="0.781433" id="path659" d="m348.414001,385.997101c8.409088,28.173401 8.51239,31.355988 29.092987,31.032684l-12.606995,-35.235077c-3.124786,0.107788 -6.572906,-0.107605 -7.434906,-3.555695c0,0 -11.064087,1.263794 -9.051086,7.758087l0,0z"/>
   <path fill="url(#linearGradient3588)" fill-rule="evenodd" stroke="url(#linearGradient3590)" stroke-width="0.781433" id="path3293" d="m474.682587,361.915588c11.228424,-8.3703 26.463409,-10.113281 37.727509,-16.658875c5.989929,-3.545807 9.880981,-11.473419 9.309387,-19.598602c1.306641,0.979889 2.613098,1.959778 3.919739,2.939697c-1.225037,9.431885 -6.708008,18.601898 -14.699036,22.048584c-19.932587,8.667114 -22.415985,6.777893 -21.313599,23.518402c-3.593079,0.163391 -6.451172,-0.1633 -10.044281,0c-1.633209,-4.083008 -3.26651,-8.166107 -4.899719,-12.249207l0,0z"/>
   <g font-size="12px" id="g3433">
    <path fill="url(#linearGradient3592)" fill-rule="evenodd" stroke="url(#linearGradient3594)" stroke-width="0.781433" id="path2766" d="m390.06839,250.10321c-0.106018,-24.019104 -1.263306,-71.190002 9.506104,-107.396698c-0.457214,-4.955017 -4.855804,-3.172699 -6.433594,-3.214508c-12.468506,37.084686 -9.714722,98.11911 -9.653412,116.764496c0.06131,18.645508 -2.815094,63.878296 9.653412,100.963013c1.577789,-0.041718 5.976379,1.740601 6.433594,-3.214508c-10.769409,-36.206604 -9.734711,-83.744904 -9.506104,-103.901794l0,0z"/>
    <path fill="url(#linearGradient3596)" fill-rule="evenodd" stroke="url(#linearGradient3598)" stroke-width="0.781433" id="path2767" d="m386.393585,248.143219c-0.105988,-24.019104 0.941498,-70.454926 10.485992,-108.131531c-1.1922,-1.525299 -2.160889,-0.477875 -3.738678,-0.519684c-12.468506,37.084686 -9.714722,98.11911 -9.653412,116.764496c0.06131,18.645508 -2.815094,63.878296 9.653412,100.963013c1.577789,-0.041718 2.546478,1.25058 3.248779,-1.499603c-8.809601,-37.186493 -10.469604,-84.724915 -10.240997,-104.881805l0.244904,0l0,-2.694885l0,0z"/>
   </g>
  </g>
  <path id="svg_26" d="m389.276001,57.976654c-14.09201,44.674454 -15.18399,160.348892 -2.276001,209.023346c47.333344,-0.666656 91.666656,-3.333344 139,-4c-2.333313,-51.666672 -0.666687,-132.333344 3,-201c-46.241333,-0.341114 -93.482666,-3.682232 -139.723999,-4.023346z" stroke="#000000" fill="url(#svg_27)"/>
  <path opacity="0.75" id="svg_29" d="m532.276001,60.976654c-4.425354,74.34111 -4.850647,119.682236 -3.276001,202.023346l29,9c35.666687,-16 35.333313,-208 -2,-223l-23.723999,11.976654z" stroke="#000000" fill="url(#svg_28)"/>
 </g>
</svg>